<svg width="200" height="67" viewBox="0 0 200 67" fill="none" xmlns="http://www.w3.org/2000/svg">
<rect width="200" height="67" rx="18" fill="url(#paint0_linear_262_859)"/>
<g clip-path="url(#clip0_262_859)">
<path d="M26.6805 41.466C26.6805 41.466 24.2421 30.772 20.0806 13.9624H25.9327C30.8746 34.3694 32.2401 40.3214 32.2401 40.3214C33.6706 46.208 37.8647 49.7073 41.6686 49.7073C45.4725 49.7073 49.1139 48.3338 50.9996 40.3214C50.9996 40.3214 53.0479 32.3745 57.1444 13.9624H62.9966C59.4202 29.3984 56.5266 41.466 56.5266 41.466C53.6331 53.5336 47.2607 55.365 41.6361 55.365C35.979 55.365 29.2815 52.0947 26.6805 41.466Z" fill="white"/>
<path d="M41.6688 57.0001C37.7999 57.0001 28.4364 55.5284 25.1202 41.8584V41.8257C25.0876 41.7276 22.6492 30.9354 18.5202 14.3548L18 12.2944H27.2009L27.4935 13.5372C32.3704 33.7152 33.8009 39.8635 33.8009 39.9289C35.1014 45.2595 38.7427 48.072 41.6363 48.072C44.4649 48.072 47.6185 47.4507 49.4067 39.9289V39.8962C49.4392 39.8308 51.4875 31.753 55.5515 13.5699L55.8441 12.2944H65.045L64.5899 14.2893C61.046 29.5619 58.1525 41.6949 58.1199 41.8257C54.9012 55.4303 47.1634 57.0001 41.6688 57.0001ZM28.2738 41.0735C29.2167 44.8998 32.3704 53.7297 41.6688 53.7297C46.7407 53.7297 52.3003 52.2254 54.9663 41.0735C54.9988 40.9427 57.6323 29.8889 60.9485 15.5648H58.4451C54.6737 32.5052 52.6579 40.2886 52.5604 40.6811C50.8047 48.0393 47.456 51.3097 41.6363 51.3097C36.7595 51.3097 32.1428 46.8293 30.6472 40.6484C30.6147 40.5829 29.2817 34.6963 24.6325 15.5321H22.129C25.933 30.8046 28.1763 40.6811 28.2738 41.0735Z" fill="white"/>
<path d="M75.0261 21.7129C72.9128 21.7129 71.2222 20.045 71.2222 17.8866C71.2222 15.8263 72.8803 14.0603 75.0261 14.0603C77.1394 14.0603 78.83 15.8263 78.83 17.8866C78.83 20.0123 77.1394 21.7129 75.0261 21.7129ZM77.8221 29.8561V54.9724H72.1975V29.8561H77.8221Z" fill="white"/>
<path d="M79.4479 56.6075H70.572V28.2208H79.4479V56.6075ZM73.8233 53.3371H76.1966V31.4912H73.8233V53.3371ZM75.0262 23.348C71.9701 23.348 69.5967 20.9607 69.5967 17.8865C69.5967 14.8778 72.0351 12.425 75.0262 12.425C78.0173 12.425 80.4557 14.8778 80.4557 17.8865C80.4557 20.928 78.0498 23.348 75.0262 23.348ZM75.0262 15.6954C73.8233 15.6954 72.8479 16.6765 72.8479 17.8865C72.8479 19.1293 73.7907 20.0777 75.0262 20.0777C76.2617 20.0777 77.2045 19.1293 77.2045 17.8865C77.2045 16.6765 76.2292 15.6954 75.0262 15.6954Z" fill="white"/>
<path d="M128.086 54.9725H122.461V34.5655C122.461 26.1607 115.699 19.293 107.343 19.293C98.9877 19.293 92.2252 26.1607 92.2252 34.5655V54.9725H86.6006V34.4347C86.6006 22.8903 95.8665 13.6353 107.343 13.6353C118.82 13.6353 128.086 23.0212 128.086 34.5655V54.9725Z" fill="white"/>
<path d="M129.712 56.6076H120.836V34.5654C120.836 27.0436 114.789 20.9281 107.343 20.9281C99.8982 20.9281 93.8509 27.0436 93.8509 34.5654V56.6076H84.9751V34.4346C84.9751 22.0727 95.0213 12 107.343 12C119.666 12 129.712 22.1381 129.712 34.5654V56.6076ZM124.087 53.3372H126.461V34.5654C126.461 23.9041 117.877 15.2703 107.343 15.2703C96.8095 15.2703 88.2263 23.8714 88.2263 34.4346V53.3699H90.5997V34.5654C90.5997 25.2449 98.11 17.6577 107.343 17.6577C116.577 17.6577 124.087 25.2449 124.087 34.5654V53.3372Z" fill="white"/>
<path d="M135.889 14.0276H141.513V34.4346C141.513 42.8394 148.276 49.7071 156.631 49.7071C164.987 49.7071 171.75 42.8394 171.75 34.4346V14.0276H177.374V34.5654C177.374 46.1097 168.108 55.3648 156.631 55.3648C145.155 55.3648 135.889 45.9789 135.889 34.4346V14.0276Z" fill="white"/>
<path d="M156.632 56.9999C144.309 56.9999 134.263 46.8618 134.263 34.4345V12.3923H143.139V34.4345C143.139 41.9563 149.186 48.0718 156.632 48.0718C164.077 48.0718 170.124 41.9563 170.124 34.4345V12.3923H179V34.5653C179 46.9272 168.954 56.9999 156.632 56.9999ZM137.514 15.6627V34.4345C137.514 45.0958 146.098 53.7295 156.632 53.7295C167.165 53.7295 175.749 45.1285 175.749 34.5653V15.6627H173.375V34.4345C173.375 43.755 165.865 51.3422 156.632 51.3422C147.398 51.3422 139.888 43.755 139.888 34.4345V15.6627H137.514Z" fill="white"/>
</g>
<defs>
<linearGradient id="paint0_linear_262_859" x1="2.0562" y1="5.34064e-08" x2="94.7713" y2="94.1384" gradientUnits="userSpaceOnUse">
<stop offset="0.133071" stop-color="#201795"/>
<stop offset="1" stop-color="#201795" stop-opacity="0"/>
</linearGradient>
<clipPath id="clip0_262_859">
<rect width="161" height="45" fill="white" transform="translate(18 12)"/>
</clipPath>
</defs>
</svg>
