<svg width="100" height="58" viewBox="0 0 100 58" fill="none" xmlns="http://www.w3.org/2000/svg">
<mask id="mask0_2_5230" style="mask-type:alpha" maskUnits="userSpaceOnUse" x="0" y="38" width="6" height="20">
<rect x="0.437988" y="38.5075" width="4.65672" height="18.6269" rx="2.32836" fill="#304CFD"/>
</mask>
<g mask="url(#mask0_2_5230)">
<rect x="0.437988" y="38.5075" width="4.65672" height="18.6269" fill="#0090FF"/>
</g>
<mask id="mask1_2_5230" style="mask-type:alpha" maskUnits="userSpaceOnUse" x="9" y="33" width="6" height="25">
<rect x="9.75146" y="33.8509" width="4.65672" height="23.2836" rx="2.32836" fill="#304CFD"/>
</mask>
<g mask="url(#mask1_2_5230)">
<rect x="9.75146" y="33.8509" width="4.65672" height="23.2836" fill="#0090FF"/>
</g>
<mask id="mask2_2_5230" style="mask-type:alpha" maskUnits="userSpaceOnUse" x="19" y="28" width="5" height="30">
<rect x="19.0648" y="28.0299" width="4.65672" height="29.1045" rx="2.32836" fill="#304CFD"/>
</mask>
<g mask="url(#mask2_2_5230)">
<rect x="19.0648" y="28.0299" width="4.65672" height="29.1045" fill="#0090FF"/>
</g>
<mask id="mask3_2_5230" style="mask-type:alpha" maskUnits="userSpaceOnUse" x="28" y="33" width="6" height="25">
<rect x="28.3784" y="33.8509" width="4.65672" height="23.2836" rx="2.32836" fill="#304CFD"/>
</mask>
<g mask="url(#mask3_2_5230)">
<rect x="28.3784" y="33.8509" width="4.65672" height="23.2836" fill="#0090FF"/>
</g>
<mask id="mask4_2_5230" style="mask-type:alpha" maskUnits="userSpaceOnUse" x="38" y="28" width="6" height="30">
<rect x="38.856" y="28.0299" width="4.65672" height="29.1045" rx="2.32836" fill="#304CFD"/>
</mask>
<g mask="url(#mask4_2_5230)">
<rect x="38.856" y="28.0299" width="4.65672" height="29.1045" fill="#0090FF"/>
</g>
<mask id="mask5_2_5230" style="mask-type:alpha" maskUnits="userSpaceOnUse" x="48" y="0" width="5" height="58">
<rect x="48.1694" y="0.0895996" width="4.65672" height="57.0448" rx="2.32836" fill="#304CFD"/>
</mask>
<g mask="url(#mask5_2_5230)">
<rect x="48.1694" y="0.0895996" width="4.65672" height="57.0448" fill="#0090FF"/>
</g>
<mask id="mask6_2_5230" style="mask-type:alpha" maskUnits="userSpaceOnUse" x="57" y="15" width="6" height="43">
<rect x="57.483" y="15.224" width="4.65672" height="41.9105" rx="2.32836" fill="#304CFD"/>
</mask>
<g mask="url(#mask6_2_5230)">
<rect x="57.483" y="15.224" width="4.65672" height="41.9105" fill="#0090FF"/>
</g>
<mask id="mask7_2_5230" style="mask-type:alpha" maskUnits="userSpaceOnUse" x="66" y="32" width="6" height="26">
<rect x="66.7963" y="32.6866" width="4.65672" height="24.4478" rx="2.32836" fill="#304CFD"/>
</mask>
<g mask="url(#mask7_2_5230)">
<rect x="66.7963" y="32.6866" width="4.65672" height="24.4478" fill="#0090FF"/>
</g>
<mask id="mask8_2_5230" style="mask-type:alpha" maskUnits="userSpaceOnUse" x="76" y="36" width="5" height="22">
<rect x="76.1099" y="36.1791" width="4.65672" height="20.9552" rx="2.32836" fill="#304CFD"/>
</mask>
<g mask="url(#mask8_2_5230)">
<rect x="76.1099" y="36.1791" width="4.65672" height="20.9552" fill="#0090FF"/>
</g>
<mask id="mask9_2_5230" style="mask-type:alpha" maskUnits="userSpaceOnUse" x="85" y="39" width="6" height="19">
<rect x="85.423" y="39.6718" width="4.65672" height="17.4627" rx="2.32836" fill="#304CFD"/>
</mask>
<g mask="url(#mask9_2_5230)">
<rect x="85.423" y="39.6718" width="4.65672" height="17.4627" fill="#0090FF"/>
</g>
<mask id="mask10_2_5230" style="mask-type:alpha" maskUnits="userSpaceOnUse" x="94" y="32" width="6" height="26">
<rect x="94.7363" y="32.6866" width="4.65672" height="24.4478" rx="2.32836" fill="#304CFD"/>
</mask>
<g mask="url(#mask10_2_5230)">
<rect x="94.7363" y="32.6866" width="4.65672" height="24.4478" fill="#0090FF"/>
</g>
</svg>
