<svg width="940" height="481" viewBox="0 0 940 481" fill="none" xmlns="http://www.w3.org/2000/svg">
<g clip-path="url(#clip0_312_863)">
<g filter="url(#filter0_d_312_863)">
<path d="M245.04 474.305C245.487 473.129 246.345 472.167 246.948 472.167C247.55 472.167 250.187 473.553 252.807 475.246C255.427 476.94 258.631 478.711 259.927 479.181L262.283 480.036L259.385 480.099C257.79 480.134 255.452 480.313 254.187 480.496C252.923 480.679 250.711 480.389 249.273 479.85C245.211 478.33 244.075 476.842 245.04 474.305ZM237.221 471.728C236.221 472.045 235.45 471.573 234.71 470.191C234.123 469.094 233.07 467.999 232.371 467.759C230.767 467.207 227.405 461.759 225.533 456.679C224.588 454.114 223.316 452.341 221.807 451.482C219.129 449.959 218.938 449.268 221.01 448.61C223.382 447.858 223.823 443.677 221.827 440.874C220.874 439.536 220.373 437.966 220.66 437.218C220.999 436.335 220.064 434.786 217.8 432.48C214.943 429.569 214.415 428.51 214.287 425.443C214.204 423.457 213.721 421.332 213.213 420.719C212.572 419.948 212.442 417.179 212.787 411.705C213.162 405.773 212.944 402.112 211.912 397.008C210.379 389.43 209.596 375.31 209.994 362.427C210.079 359.679 209.723 355.905 209.202 354.042C207.935 349.504 202.105 343.776 194.899 339.989C189.745 337.281 189.02 336.587 187.006 332.427C185.786 329.908 183.454 326.142 181.824 324.06C180.194 321.977 178.422 318.919 177.886 317.264C176.185 312.01 173.186 306.73 171.142 305.391C170.054 304.678 168.813 302.825 168.384 301.272C167.691 298.76 167.874 298.059 170.045 294.903C172.399 291.481 172.427 291.341 170.836 290.925C166.927 289.903 168.571 284.678 175.588 275.823C180.252 269.938 181.618 265.454 180.326 260.274C179.834 258.3 179.393 256.236 179.346 255.686C179.3 255.136 178.949 254.687 178.567 254.687C178.186 254.687 178.259 253.965 178.731 253.084C179.458 251.726 179.274 251.338 177.527 250.542C174.982 249.382 171.138 250.529 171.123 252.453C171.105 254.76 170.09 254.93 166.745 253.186C164.954 252.252 163.093 251.488 162.61 251.488C162.127 251.488 160.249 250.211 158.437 248.65C156.625 247.088 154.692 245.455 154.142 245.02C153.593 244.585 153.143 243.4 153.143 242.386C153.143 241.372 152.437 239.903 151.574 239.122C150.711 238.341 149.593 236.454 149.089 234.927C148.427 232.921 147.931 232.394 147.3 233.025C145.982 234.342 144.032 234.092 139.299 231.998C136.824 230.904 134.246 229.035 133.216 227.589C132.233 226.208 130.355 224.523 129.042 223.845C126.876 222.725 126.335 222.733 123.18 223.938L119.704 225.266L109.038 220.098C102.478 216.919 97.3862 213.886 95.8092 212.218C93.364 209.632 93.2849 209.352 94.0985 206.146C94.8439 203.21 94.7173 202.301 93.0962 198.952C92.0757 196.844 89.846 193.606 88.1413 191.757C86.4367 189.907 85.2356 188.081 85.4722 187.698C85.7089 187.315 84.5081 184.734 82.8038 181.963C80.8677 178.814 79.5013 175.442 79.1618 172.974C78.7267 169.81 78.2197 168.842 76.6147 168.111C74.9133 167.336 74.4375 167.435 73.4633 168.765C72.0913 170.64 72.4813 172.619 75.5151 179.175C76.7479 181.839 78.0219 185.788 78.3463 187.951C78.6706 190.114 79.6287 193.241 80.4752 194.901C82.4804 198.831 81.1857 198.762 78.0236 194.769C76.1586 192.415 75.6549 191.123 76.0256 189.646C76.4213 188.07 76.0316 187.31 74.0933 185.877C71.1534 183.703 70.5312 182.301 71.6111 180.284C72.2409 179.107 71.9521 177.816 70.3528 174.66C68.7287 171.455 68.389 169.903 68.7912 167.523C69.4485 163.632 67.7029 160.111 64.4489 158.763C62.5701 157.985 61.9224 157.114 61.5396 154.852C61.2688 153.252 60.75 150.776 60.3869 149.351C60.0091 147.868 60.0366 146.567 60.4511 146.311C60.8496 146.064 60.5889 144.967 59.8717 143.873C58.8156 142.261 58.7432 141.498 59.491 139.857C59.9987 138.743 60.1904 137.469 59.9169 137.026C59.6434 136.584 60.3249 135.261 61.4315 134.088C62.538 132.914 64.0112 130.574 64.7052 128.886C65.3992 127.199 67.5378 124.072 69.4578 121.936C71.3777 119.801 73.8118 116.06 74.8667 113.624C76.3311 110.242 77.1894 109.191 78.495 109.18C79.4356 109.173 80.1552 109.616 80.0941 110.166C79.8396 112.457 81.6509 111.751 83.6853 108.767C84.8845 107.008 85.5316 105.449 85.1232 105.302C84.7148 105.155 84.3807 104.494 84.3807 103.831C84.3807 103.169 82.7254 101.019 80.7023 99.0524C77.3469 95.7913 77.1314 95.3589 78.2471 94.126C79.1511 93.1271 79.2574 92.3942 78.6546 91.3169C77.5951 89.4238 79.2669 85.1844 81.0795 85.1674C81.8282 85.1602 82.0419 84.9054 81.5822 84.5677C80.5509 83.8101 80.0837 82.0894 80.2286 79.5827C80.46 75.5791 79.5839 73.9044 76.6073 72.6607C75.0018 71.9899 72.552 70.5744 71.1632 69.5152C69.7745 68.4559 68.0126 67.5893 67.2478 67.5893C66.4831 67.5893 63.007 66.8615 59.5231 65.972C53.9219 64.5419 52.9347 64.4854 50.9944 65.484C46.9735 67.5535 42.7135 68.3969 40.9767 67.4675C39.674 66.7703 38.2524 67.2008 33.2951 69.7939C29.9494 71.544 25.9528 73.2474 24.4136 73.5793C22.8744 73.9112 19.9289 75.0325 17.8678 76.071C12.0218 79.0167 3.64744 81.9861 1.33102 81.9346C-0.163949 81.9014 0.846767 81.2457 4.82435 79.6684C11.5843 76.9877 18.5304 73.4967 19.1729 72.4571C19.9642 71.1767 18.2465 70.7173 16.1831 71.6575C14.6639 72.3497 13.7276 72.2849 11.9745 71.3664L9.71986 70.185L12.1725 68.9167C14.945 67.483 15.8171 65.8609 15.1801 63.3229C14.5632 60.8648 17.9648 59.0587 25.2926 57.9536C29.23 57.3598 32.2232 56.3714 34.2384 54.9995C37.7921 52.5804 37.1815 50.7521 33.3501 52.3391C31.5363 53.0904 30.2151 53.0986 27.529 52.3753C24.2646 51.4963 24.1483 51.3709 25.6084 50.3032C28.0516 48.5167 33.1046 47.4421 36.4245 48.003C38.5253 48.358 40.2462 48.1095 42.0122 47.1962L44.5643 45.8765L42.8843 44.0883C41.9603 43.1048 41.2044 42.0886 41.2044 41.8301C41.2044 41.0883 46.0178 39.6047 48.4245 39.6047C49.6258 39.6047 52.9191 38.7351 55.7428 37.6722C58.5666 36.6093 65.0814 35.1583 70.2202 34.4476C78.5548 33.295 80.3198 33.281 86.5695 34.3172C90.4229 34.9562 95.7344 35.7182 98.373 36.0107C101.012 36.3031 105.682 37.2314 108.751 38.0735C115.88 40.0294 120.523 40.0055 128.488 37.9721C132.004 37.0742 135.559 36.5544 136.386 36.817C137.214 37.0797 138.621 36.9039 139.513 36.4265C140.742 35.7686 141.695 35.8481 143.449 36.7551C145.034 37.5746 146.99 37.8084 149.653 37.4969C152.463 37.1682 154.923 37.5086 158.515 38.7231C161.249 39.6477 164.286 40.4042 165.264 40.4042C166.995 40.4042 167.001 40.4336 165.489 41.5465C164.006 42.6377 164.002 42.7139 165.394 43.2534C166.196 43.564 168.978 43.5959 171.577 43.3242C176.271 42.8336 176.312 42.8474 177.621 45.3786L178.939 47.9269L180.649 45.7816C181.632 44.5488 183.968 43.1523 186.141 42.4983C189.425 41.5099 190.422 41.5132 193.721 42.5234C196.049 43.2364 198.836 43.4962 200.923 43.1947C203.581 42.8109 204.815 43.05 206.549 44.2847C208.738 45.8435 208.798 45.8443 210.74 44.3395C211.824 43.4998 214.053 42.4385 215.695 41.9811C219.625 40.8861 220.958 38.5528 218.598 36.8997C216.929 35.7307 217.002 35.6415 221.389 33.4898C224.661 31.8851 226.134 31.5207 226.772 32.1584C227.41 32.7962 227.403 33.4977 226.748 34.7215C225.632 36.8073 227.022 39.9601 228.763 39.292C229.389 39.0518 230.427 39.0572 231.07 39.304C232.08 39.6916 232.064 40.0203 230.951 41.7186C227.877 46.4105 234.769 45.0811 239.435 40.0823C241.332 38.0499 244.271 37.4337 247.026 38.4909C248.805 39.1736 248.638 39.7325 245.692 42.963C242.181 46.8129 240.384 47.6003 235.111 47.6003C232.562 47.6003 229.553 48.1524 228.151 48.8775C226.21 49.8811 225.264 49.9645 223.733 49.2671C220.88 47.9668 219.886 49.0491 221.933 51.2281L223.681 53.0881L220.194 54.0775C218.277 54.6217 215.089 55.1196 213.11 55.1839C210.24 55.2771 209.511 55.5887 209.506 56.7231C209.502 57.6938 208.106 58.7154 205.109 59.9408C195.396 63.9111 187.156 71.0698 190.139 72.9466C190.698 73.2983 191.586 74.5655 192.111 75.7627C192.716 77.1414 193.883 78.1029 195.293 78.3851C196.517 78.6302 199.677 79.8938 202.316 81.1932C204.954 82.4925 208.193 83.7909 209.512 84.0784C213.144 84.87 213.176 84.9533 211.484 89.2449C210.037 92.9165 210.008 93.4405 211.129 95.6093C211.802 96.9091 212.792 97.9599 213.33 97.9443C215.95 97.8685 218.407 95.4506 219.933 91.4454C221.388 87.628 222.051 86.9159 226.227 84.6856C232.389 81.394 234.952 78.1522 234.269 74.5119C233.824 72.1407 234.055 71.5842 236.085 70.1391C237.364 69.2283 239.057 67.0486 239.848 65.2952C241.615 61.376 244.455 60.0173 249.244 60.8003C253.491 61.4946 258.514 64.1909 259.12 66.1023C259.369 66.8869 259.163 68.296 258.661 69.2337C257.901 70.6538 258.044 71.2534 259.521 72.8248L261.293 74.7112L264.187 73.2111C265.778 72.3861 268.329 70.7766 269.855 69.6346L272.63 67.5581L273.282 69.3205C273.641 70.2898 273.743 71.5822 273.509 72.1925C273.274 72.8028 273.456 74.0004 273.913 74.8539C274.427 75.814 274.467 76.9 274.018 77.7024C273.512 78.607 273.85 79.981 275.137 82.2466C276.981 85.4922 276.981 85.4948 275.362 86.6288C273.232 88.1209 274.598 89.7033 276.936 88.452C279.259 87.2092 281.917 87.3708 283.556 88.8544C285.979 91.0475 283.964 93.6712 277.532 96.6974C270.536 99.9891 267.417 100.641 258.285 100.722C251.542 100.782 250.649 100.997 244.093 104.139C240.245 105.984 237.097 107.81 237.097 108.197C237.097 109.846 238.309 109.703 242.961 107.502C245.702 106.205 249.235 105.17 250.917 105.169C253.791 105.169 253.896 105.258 252.999 106.935C252.479 107.906 251.358 109.264 250.507 109.953C249.17 111.036 249.092 111.493 249.929 113.33C251.184 116.085 254.463 117.411 258.384 116.749L261.483 116.227L259.1 117.871C257.79 118.775 255.631 119.749 254.303 120.036C252.975 120.323 250.246 121.385 248.238 122.396C246.201 123.423 244.153 123.966 243.603 123.626C242.338 122.844 243.673 121.671 247.785 119.953C251.441 118.426 250.856 116.803 246.916 117.542C245.381 117.83 240.404 119.705 235.856 121.708C228.757 124.835 227.519 125.661 227.105 127.542C226.597 129.855 224.864 130.949 218.771 132.803C216.827 133.394 214.308 134.824 213.174 135.979C212.039 137.134 209.867 138.864 208.347 139.823C206.826 140.782 205.37 142.462 205.111 143.557C204.685 145.36 204.586 145.403 204.052 144.014C203.051 141.41 201.544 143.955 201.457 148.395C201.368 152.943 199.063 156.046 194.006 158.421C188.822 160.857 181.445 166.613 179.95 169.389C178.631 171.839 178.575 172.794 179.388 179.092C180.147 184.967 180.102 186.442 179.103 188.372C178.358 189.813 177.488 190.502 176.765 190.225C175.049 189.566 172.951 182.506 173.539 179.372C173.947 177.194 173.677 176.369 172.054 174.845C170.746 173.616 169.539 173.149 168.513 173.475C167.656 173.746 165.235 173.231 163.129 172.328C159.902 170.945 158.872 170.829 156.568 171.589C155.006 172.105 153.455 173.327 152.947 174.442C152.19 176.102 151.69 176.315 149.602 175.866C148.251 175.575 146.175 174.841 144.987 174.234C142.062 172.74 140.424 172.844 137.139 174.733C135.607 175.614 132.48 177.301 130.191 178.481C127.56 179.837 125.752 181.38 125.278 182.676C124.866 183.803 123.392 188.197 122.002 192.44L119.476 200.155L120.766 205.135C123.137 214.285 126.436 217.024 133.309 215.55C138.49 214.438 141.602 212.187 142.746 208.721C143.472 206.52 144.256 205.792 146.601 205.141C150.131 204.16 151.605 204.124 152.961 204.985C154.08 205.695 153.687 206.863 148.677 217.709C145.24 225.151 145.487 225.817 151.376 224.967C156.742 224.194 161.646 224.787 162.219 226.28C162.442 226.862 162.079 230.79 161.412 235.008C160.218 242.553 160.226 242.722 161.945 245.503C162.906 247.057 164.707 248.854 165.947 249.495C167.928 250.52 168.55 250.517 171.042 249.476C175.002 247.821 177.152 247.996 179.903 250.197C182.102 251.957 182.413 252.006 184.141 250.874C185.167 250.202 186.567 248.536 187.251 247.172C188.795 244.096 191.396 241.935 193.581 241.911C194.494 241.902 196.086 240.994 197.119 239.895C199.216 237.662 202.91 236.935 201.104 239.11C199.59 240.935 198.723 246.806 199.7 248.631C200.513 250.15 200.578 250.141 202.057 248.314C203.111 247.013 203.323 246.179 202.748 245.604C201.374 244.23 201.788 243.089 204.343 241.2C206.996 239.238 209.049 239.439 211.338 241.886C213.017 243.679 221.979 246.104 224.548 245.459C228.46 244.477 239.029 250.904 243.001 256.679C244.891 259.428 250.932 262.196 253.589 261.529C259.053 260.158 266.544 265.632 268.296 272.277C268.818 274.256 269.604 276.099 270.044 276.373C271.211 277.1 269.463 279.971 265.643 283.605C263.203 285.927 262.62 286.926 263.307 287.613C263.993 288.299 265.122 287.698 267.832 285.2C271.773 281.567 273.089 281.198 275.063 283.172C276.264 284.374 276.227 284.618 274.581 286.371C273.601 287.414 272.231 288.291 271.538 288.319C270.808 288.348 271.103 288.699 272.24 289.153C273.802 289.777 274.617 289.601 276.238 288.291C280.46 284.88 281.452 284.717 285.202 286.812C287.64 288.174 288.617 289.211 288.494 290.307C288.152 293.356 288.871 294.031 290.985 292.646C292.665 291.545 293.818 291.493 299.439 292.263C305.418 293.081 306.201 293.408 309.07 296.276C311.2 298.406 313.595 299.807 316.605 300.682C320.645 301.856 321.084 302.215 321.817 304.936C322.88 308.882 321.635 313.261 318.268 317.42C316.83 319.197 315.067 321.805 314.35 323.216C313.634 324.627 312.111 326.719 310.965 327.865C309.026 329.804 308.918 330.289 309.401 334.894C310.346 343.889 305.945 360.672 301.701 364.261C300.32 365.43 299.137 365.704 296.946 365.365C295.145 365.086 293.812 365.266 293.46 365.835C293.146 366.342 291.4 367.412 289.58 368.213C287.759 369.013 285.049 370.711 283.557 371.986C280.974 374.191 280.888 374.436 281.757 377.069C282.759 380.106 282.084 383.701 279.936 386.767C279.242 387.758 278.674 389.445 278.674 390.514C278.674 391.584 277.84 393.573 276.82 394.934C275.801 396.295 273.834 399.41 272.449 401.856C269.044 407.875 266.996 408.918 262.058 407.148C257.772 405.612 255.487 405.428 255.487 406.62C255.487 407.069 256.341 407.826 257.385 408.302C258.429 408.778 260.056 410.714 261.001 412.606C262.407 415.422 262.556 416.4 261.823 418.009C260.688 420.502 256.345 422.594 252.309 422.594C248.733 422.594 247.847 423.469 249.081 425.776C249.844 427.2 249.331 429.492 247.857 431.249C247.737 431.391 246.486 430.911 245.075 430.181C241.707 428.44 240.515 429.549 242.217 432.84C242.909 434.179 244.226 435.512 245.142 435.803C246.717 436.303 246.734 436.414 245.454 437.829C244.708 438.653 244.321 439.904 244.593 440.612C244.885 441.373 244.233 443.017 242.997 444.638C240.988 447.272 240.959 447.455 242.247 449.421C242.984 450.545 244.133 451.674 244.8 451.93C247.208 452.854 247.608 456.011 245.771 459.61C243.932 463.216 243.65 466.831 245.074 468.546C246.368 470.106 242.013 473.144 240.054 472.048C239.289 471.62 238.014 471.476 237.221 471.728ZM190.441 117.962C192.745 117.962 192.772 118.336 190.662 121.018L189.003 123.127L190.705 124.505C192.077 125.616 192.785 125.712 194.348 125C195.415 124.513 196.509 123.42 196.779 122.57C197.146 121.413 197.743 121.143 199.151 121.497C200.454 121.824 201.27 121.544 201.806 120.585C203.431 117.682 199.296 113.97 196.253 115.599C194.075 116.764 191.23 114.445 191.837 112C192.062 111.094 191.599 109.516 190.797 108.458C189.145 106.277 186.63 106.047 181.128 107.574C179.149 108.124 176.892 108.549 176.113 108.518C175.334 108.488 174.905 108.802 175.161 109.215C175.416 109.628 175.334 109.974 174.978 109.984C174.622 109.994 173.436 110.689 172.342 111.53L170.352 113.059L172.586 113.908C174.333 114.572 175.363 114.478 177.303 113.474C179.583 112.295 180.005 112.296 182.494 113.483C183.993 114.198 186.039 114.565 187.076 114.304C188.106 114.046 189.169 114.191 189.439 114.628C189.715 115.074 188.588 115.648 186.867 115.939C182.187 116.729 179.756 118.678 176.362 124.358C173.527 129.103 173.365 129.675 174.495 130.929C175.603 132.16 175.91 132.179 177.431 131.115C178.364 130.462 180.028 128.048 181.128 125.751C183.264 121.286 187.239 117.962 190.441 117.962ZM195.654 130.686C198.5 129.234 198.774 128.869 197.771 127.866C196.768 126.863 196.134 126.928 192.871 128.372C189.04 130.067 187.824 132.354 190.754 132.354C191.651 132.354 193.856 131.603 195.654 130.686ZM209.831 124.644C211.497 123.478 211.558 123.249 210.384 122.592C208.655 121.624 203.515 123.291 203.515 124.82C203.515 126.395 207.49 126.284 209.831 124.644ZM270.838 468.329C271.366 467.802 271.496 467.37 271.126 467.37C270.757 467.37 270.023 467.96 269.496 468.681C268.739 469.716 268.216 469.806 267.009 469.105C266.147 468.604 265.937 468.207 266.528 468.194C267.103 468.18 267.352 467.81 267.08 467.37C266.558 466.525 267.93 466.295 271.878 466.565C275.401 466.805 275.755 467.32 273.577 469.033C271.549 470.628 269.879 471.033 269.879 469.928C269.879 469.577 270.311 468.857 270.838 468.329ZM881.46 437.141C881.945 436.234 882.342 434.365 882.342 432.987C882.342 430.735 882.524 430.546 884.141 431.115C885.131 431.463 887.2 431.795 888.739 431.852C890.278 431.91 891.816 432.009 892.156 432.073C893.481 432.322 889.939 436.354 886.756 438.219C882.966 440.44 883.123 440.401 881.66 439.475C880.829 438.948 880.783 438.406 881.46 437.141ZM885.89 421.355C883.828 422.705 879.955 421.916 876.851 419.513C875.194 418.231 875.079 417.818 875.933 416.222C876.662 414.86 876.686 413.905 876.028 412.461C875.543 411.397 875.146 409.823 875.146 408.964C875.146 407.027 873.889 406.935 872.847 408.795C872.419 409.561 871.839 409.959 871.559 409.679C871.279 409.399 872.205 407.854 873.617 406.246C877.091 402.289 875.735 401.215 871.146 404.289C869.168 405.613 867.422 407.06 867.266 407.504C867.109 407.948 866.159 406.577 865.154 404.459C864.064 402.161 862.182 399.853 860.491 398.738C857.95 397.065 857.089 396.927 852.209 397.413C845.051 398.125 838.146 399.89 833.626 402.162C831.572 403.195 827.563 404.252 824.471 404.576C821.446 404.894 816.634 406.033 813.779 407.107C809.413 408.751 808.17 408.924 805.958 408.193C802.99 407.214 801.757 405.195 803.677 404.459C804.372 404.192 805.634 402.357 806.481 400.381C807.836 397.219 807.911 396.234 807.107 392.147C806.442 388.766 806.424 385.565 807.039 380.36C807.504 376.43 807.682 372.441 807.435 371.495C807.187 370.549 807.574 368.234 808.293 366.35C809.562 363.028 809.869 362.811 818.447 359.178C823.312 357.117 828.292 355.431 829.513 355.431C832.818 355.431 836.91 352.287 839.166 348.014C840.561 345.373 841.528 344.369 842.365 344.692C844.7 345.595 845.161 345.417 844.981 343.686C844.865 342.572 845.344 341.762 846.296 341.46C847.119 341.199 848.64 339.743 849.676 338.225C850.737 336.671 852.917 334.919 854.667 334.217C857.586 333.045 857.876 333.062 859.464 334.506C862.394 337.168 864.469 337.946 865.461 336.751C865.943 336.17 866.109 335.466 865.829 335.187C864.914 334.271 869.102 329.017 871.149 328.512C872.248 328.241 874.505 327.339 876.165 326.508C878.753 325.211 879.663 325.125 882.561 325.904C888.812 327.582 889.02 327.857 886.695 331.37C883.704 335.888 884.497 337.655 891.832 342.818C895.218 345.201 898.414 347.009 898.935 346.835C899.456 346.662 901.103 344.837 902.595 342.78C904.628 339.977 905.417 337.939 905.742 334.643C906.205 329.961 908.445 323.449 909.592 323.449C909.972 323.449 910.842 325.374 911.527 327.728C912.211 330.082 913.645 332.828 914.713 333.832C917.209 336.177 918.659 342.734 917.538 346.609C916.795 349.176 916.939 349.588 919.484 352.206C920.995 353.76 923.385 357.55 924.795 360.628C926.205 363.707 928.748 368.062 930.445 370.307L933.531 374.389L932.653 380.696C932.017 385.272 931.032 388.321 929.065 391.806C926.051 397.143 921.545 402.236 919.17 402.99C918.316 403.261 916.337 405.264 914.773 407.442C913.209 409.619 911.577 411.401 911.147 411.401C910.716 411.401 908.887 413.269 907.082 415.553C904.071 419.362 903.517 419.711 900.38 419.769C897.973 419.815 896.129 420.468 894.153 421.975L891.345 424.117L889.502 422.156C887.819 420.364 887.507 420.295 885.89 421.355ZM498.023 400.454C498.379 398.259 498.04 396.968 496.519 394.73C495.439 393.14 494.555 391.449 494.555 390.971C494.555 390.492 493.141 388.206 491.413 385.89C488.742 382.31 488.194 380.88 487.753 376.351C486.976 368.359 484.424 359.709 480.995 353.439C479.308 350.357 477.689 346.355 477.395 344.546C476.77 340.697 478.334 334.968 481.902 328.026L484.276 323.409L482.942 319.392C482.196 317.146 481.832 314.487 482.115 313.358C482.446 312.037 482.09 310.463 481.083 308.799C480.236 307.402 478.979 304.279 478.29 301.861C477.368 298.63 476.084 296.529 473.449 293.945C468.382 288.973 467.723 287.016 469.296 281.606C472.497 270.593 469.039 264.169 460.589 265.437C457.299 265.93 457.174 265.869 456.709 263.544C456.352 261.761 455.386 260.712 452.959 259.474C449.805 257.865 448.455 257.859 444.583 259.436C443.703 259.794 440.105 261.036 436.587 262.195C431.297 263.938 429.709 264.163 427.406 263.495C425.225 262.862 423.388 263.026 418.924 264.251C414.311 265.516 412.639 265.652 410.147 264.964C404.946 263.528 396.011 255.475 394.74 251.078C393.757 247.675 387.64 239.745 385.559 239.174C384.236 238.811 384.073 238.53 384.883 238.007C385.698 237.481 385.556 237.215 384.284 236.882C382.263 236.354 382.062 234.702 384.016 234.685C385.212 234.675 385.241 234.56 384.216 233.898C383.461 233.41 383.377 233.118 383.989 233.111C384.624 233.103 384.382 232.117 383.293 230.27C381.759 227.671 381.727 227.327 382.899 226.033C386.476 222.08 387.26 213.569 384.541 208.207C383.242 205.647 384.077 202.111 386.847 198.435C387.89 197.051 389.927 193.684 391.373 190.951C393.902 186.172 399.54 179.528 401.066 179.528C402.755 179.528 408.203 173.671 408.203 171.855C408.203 167.757 410.653 163.67 414.649 161.106C416.795 159.729 419.311 157.373 420.239 155.872C422.137 152.801 422.405 152.701 424.616 154.241C425.483 154.846 427.639 155.583 429.406 155.88C432.1 156.332 433.389 156.006 437.401 153.86C444.305 150.168 448.571 149.246 456.471 149.739C461.681 150.064 464.026 149.856 466.552 148.846C470.271 147.358 473.486 148.238 472.616 150.507C472.354 151.188 472.514 152.196 472.971 152.747C473.546 153.439 473.541 154.432 472.956 155.97C472.221 157.903 472.384 158.478 474.205 160.378C475.356 161.58 477.418 162.788 478.787 163.062C485.213 164.347 487.04 165.179 488.367 167.425C489.339 169.071 490.614 169.916 492.72 170.311C494.359 170.618 496.738 171.407 498.007 172.063C500.163 173.178 500.442 173.137 502.24 171.449C503.449 170.313 503.997 169.111 503.713 168.218C503.465 167.435 503.654 166.062 504.134 165.166C505.371 162.855 508.883 163.081 514.367 165.827C520.342 168.818 531.672 170.952 535.689 169.843C537.621 169.31 539.479 169.303 541.17 169.822C546.695 171.52 549.524 170.191 550.278 165.544C550.529 164 550.957 162.737 551.229 162.737C551.746 162.737 552.016 160.416 552.091 155.341C552.115 153.692 552.505 152.343 552.957 152.343C553.496 152.343 553.469 151.764 552.88 150.663C551.897 148.826 549.903 148.868 545.131 150.826C542.867 151.755 542.237 151.716 540.21 150.518C537.581 148.965 534.883 148.732 534.105 149.991C533.526 150.927 529.438 150.271 527.221 148.886C525.628 147.891 524.139 144.93 524.139 142.756C524.139 141.922 523.33 140.669 522.34 139.972C520.809 138.894 520.72 138.588 521.74 137.92C522.4 137.488 523.757 137.327 524.756 137.562C526.03 137.862 527.201 137.36 528.68 135.882C530.071 134.49 531.764 133.722 533.66 133.621C535.24 133.537 537.528 132.812 538.745 132.01C541.387 130.269 547.386 130.753 552.04 133.083C558.316 136.224 563.89 136.039 566.133 132.616C567.3 130.834 567.306 130.46 566.199 128.77C565.524 127.74 562.282 125.367 558.995 123.497L553.019 120.096L554.138 117.931C554.754 116.74 555.057 115.564 554.81 115.318C554.564 115.071 554.658 114.396 555.02 113.817C555.381 113.238 555.747 112.3 555.833 111.732C556.017 110.521 554.727 110.855 548.369 113.667C544.678 115.3 544.129 115.8 544.948 116.787C545.484 117.433 546.689 117.978 547.624 117.997C548.936 118.024 548.626 118.401 546.265 119.647C543.398 121.16 543.078 121.179 541.214 119.958C539.62 118.914 539.411 118.428 540.167 117.518C540.917 116.614 540.805 116.267 539.621 115.822C538.802 115.514 537.746 114.748 537.274 114.119C534.984 111.067 527.718 119.097 525.605 127.016C524.613 130.733 524.646 130.927 526.513 132.335L528.451 133.797L524.896 134.53C522.94 134.933 520.305 134.98 519.04 134.634C516.704 133.997 513.745 134.958 513.745 136.355C513.745 136.765 513.201 136.892 512.535 136.637C511.87 136.382 510.814 136.597 510.188 137.117C509.218 137.922 509.328 138.582 510.936 141.606C512.678 144.881 512.731 145.33 511.645 147.507C510.284 150.236 509.018 150.033 507.095 146.778C505.754 144.508 505.763 144.456 507.537 144.204C509.775 143.887 509.919 142.462 507.748 142.114C502.794 141.322 500.152 138.712 500.152 134.609C500.152 131.408 497.185 127.879 493.586 126.8C491.715 126.24 489.682 125.063 489.068 124.186C488.453 123.308 486.654 122.048 485.069 121.386C483.485 120.724 481.711 119.502 481.128 118.67C480.292 117.475 479.742 117.331 478.517 117.987C477.663 118.444 476.965 119.332 476.965 119.961C476.965 122.037 487.156 131.429 492.138 133.943C497.42 136.61 498.245 137.562 494.575 136.756C491.303 136.037 490.412 136.756 491.531 139.212C492.317 140.938 492.188 141.462 490.607 142.982L488.77 144.747L489.188 142.365C489.852 138.584 484.867 133.153 480.733 133.153C479.218 133.153 473.396 127.506 471.87 124.557C470.241 121.405 468.427 120.796 465.858 122.538C461.989 125.162 459.087 126.049 456.052 125.536C452.019 124.855 449.482 126.261 450.125 128.821C450.46 130.158 450.273 130.755 449.52 130.755C448.92 130.755 447.384 131.654 446.106 132.753C444.829 133.851 443.508 134.751 443.172 134.751C442.183 134.753 439.392 139.804 439.389 141.599C439.385 143.315 436.259 146.697 433.242 148.247C432.281 148.741 430.045 149.145 428.272 149.145C425.834 149.145 424.835 149.546 424.166 150.796C423.29 152.433 423.263 152.43 421.214 150.38C419.292 148.458 418.185 147.977 414.305 147.377C412.267 147.061 411.923 142.447 413.447 135.873C414.099 133.063 414.419 129.914 414.158 128.875C413.4 125.857 415.772 124.077 419.74 124.686C428.901 126.093 434.26 126.171 435.516 124.915C437.242 123.189 438.021 117.497 436.968 114.305C436.281 112.223 435.336 111.372 432.516 110.295C428.37 108.712 428.283 107.18 432.336 107.139C433.881 107.124 436.109 106.479 437.288 105.707C438.466 104.935 439.77 104.512 440.184 104.768C441.315 105.467 445.595 103 447.016 100.831C447.703 99.7822 449.056 98.7229 450.022 98.4765C450.988 98.2302 453.578 96.3529 455.777 94.3047C458.894 91.401 460.53 90.4906 463.202 90.1715C466.514 89.7762 469.844 87.053 468.281 86.0188C467.309 85.376 466.497 81.5043 467.038 80.094C467.295 79.4258 468.427 78.2749 469.554 77.5364L471.603 76.1937L471.077 79.4837C470.62 82.3391 470.737 82.7426 471.959 82.5383C472.733 82.4089 474.182 81.8553 475.178 81.3082C476.694 80.475 477.066 80.5155 477.466 81.5573C478.151 83.3429 476.246 85.4425 474.931 84.3511C474.205 83.7483 473.744 83.7701 473.338 84.4266C472.92 85.1038 472.592 85.067 472.111 84.2887C471.75 83.7048 471.272 83.4106 471.047 83.6349C470.823 83.8592 471.462 85.0746 472.468 86.3357C474.163 88.4615 474.486 88.5624 476.902 87.7202C478.971 86.999 479.964 87.0482 481.726 87.9591C483.714 88.9874 484.386 88.9385 488.208 87.4862C491.557 86.2137 492.877 86.0505 494.359 86.7259C495.722 87.3471 496.732 87.3343 497.999 86.6797C501.596 84.8214 502.592 83.4201 502.145 80.848C501.484 77.0355 502.696 75.7867 505.888 76.9917C508.06 77.8117 508.695 77.7791 509.677 76.7973C510.716 75.7578 510.627 75.3738 508.923 73.5604C507.284 71.8158 507.17 71.3821 508.169 70.7079C508.817 70.2706 511.246 70.1139 513.566 70.3597C517.813 70.8095 523.105 69.1506 522.183 67.6586C521.375 66.352 516.501 65.9744 512.372 66.8986C508.709 67.7182 507.748 67.6519 504.941 66.3861C500.581 64.4202 500.068 62.1201 503.058 57.9526C506.907 52.5883 507.611 50.8789 506.514 49.5578C504.891 47.6017 503.296 48.2394 499.587 52.3277C497.628 54.488 494.957 56.6975 493.653 57.2377C492.349 57.7779 490.736 59.276 490.068 60.5669C488.981 62.6691 488.983 63.1096 490.084 64.7912C490.761 65.8237 492.044 66.8999 492.935 67.1828C495.388 67.9613 494.902 69.4224 491.394 71.8228C490.315 72.5611 488.876 74.6498 488.196 76.4643C487.344 78.7381 486.048 80.2896 484.027 81.4562C481.179 83.1009 481.049 83.1073 479.475 81.6827C478.584 80.8763 477.639 79.2316 477.374 78.0277C477.11 76.8239 475.909 74.6597 474.706 73.2184L472.518 70.5979L469.744 72.2889C468.219 73.2189 466.251 73.9732 465.371 73.9651C462.834 73.9417 459.897 71.2009 459.7 68.6735C459.602 67.4176 459.276 65.774 458.975 65.0211C458.258 63.2302 461.839 59.8716 465.56 58.8442C469.294 57.8131 476.868 52.5051 478.159 50.0145C478.733 48.9066 480.678 46.6772 482.481 45.0603C484.285 43.4433 485.76 41.764 485.76 41.3285C485.76 40.8929 487.469 39.9275 489.558 39.1832C491.647 38.4388 495.155 37.0882 497.354 36.1819C500.053 35.0692 503.429 34.4809 507.748 34.3704C515.295 34.1774 520.231 35.1777 524.303 37.7257C526.346 39.0042 527.959 39.4404 529.502 39.1318C532.263 38.5797 546.978 43.1409 547.591 44.7387C548.208 46.3447 543.987 47.8606 540.356 47.3377C538.693 47.0981 535.253 46.4576 532.712 45.9142C529.292 45.1827 527.859 45.1596 527.193 45.8252C526.528 46.4908 526.861 46.9821 528.475 47.7177C529.674 48.2641 531.176 49.717 531.811 50.9464C533.43 54.0766 538.614 56.6283 541.289 55.6113C543.859 54.6342 543.841 54.3261 541.13 52.855C538.622 51.4944 539.779 51.2003 542.929 52.3978C545.444 53.3539 548.293 52.1644 547.63 50.4354C547.319 49.6256 548.193 49.0409 550.658 48.4092C555.933 47.0575 556.319 46.8643 555.881 45.7946C554.226 41.7484 554.203 41.8646 556.611 42.1396C557.896 42.2863 558.835 42.8358 558.728 43.3788C558.622 43.9153 559.292 44.7589 560.216 45.2534C561.604 45.9962 562.699 45.7316 566.515 43.7312C572.111 40.7978 576.468 39.8415 578.093 41.1898C578.998 41.9416 580.5 41.9469 584.848 41.2136C587.923 40.6949 590.788 40.4864 591.215 40.7502C591.642 41.0141 592.227 40.8485 592.515 40.3823C593.145 39.3628 591.403 37.0495 590.449 37.6391C589.297 38.3508 585.516 37.0758 586.338 36.2532C587.167 35.4249 609.418 40.6099 610.75 41.9416C611.647 42.8393 614.49 41.6417 614.49 40.3658C614.49 39.9358 612.903 38.813 610.963 37.8707C604.949 34.949 604.563 30.2697 610.219 28.8503C613.501 28.0265 614.92 28.9768 619.46 35.0376C625.354 42.9064 625.204 42.5061 623.278 45.2104C621.852 47.213 621.767 47.6816 622.756 48.0613C624.63 48.7806 628.642 46.2635 629.207 44.0138C629.869 41.3778 628.633 39.1313 625.683 37.6058C623.364 36.4065 621.686 34.209 621.686 32.3723C621.686 31.7462 622.555 31.59 624.284 31.9058C626.876 32.3792 629.02 31.4392 634.89 27.256C636.232 26.2993 638.501 25.6688 640.789 25.6169C645.431 25.5117 646.933 24.7325 645.597 23.1232C645.073 22.4921 644.811 21.8093 645.015 21.6058C646.036 20.5847 659.199 18.7446 662.231 19.1992C665.148 19.6367 666.051 19.4001 668.451 17.5695C669.995 16.3917 671.258 15.111 671.258 14.7234C671.258 13.7461 664.271 13.8334 663.662 14.8183C662.825 16.1736 661.739 15.702 662.045 14.1157C662.303 12.7762 661.626 12.5583 655.802 12.1048C639.899 10.8666 638.607 10.5761 640.514 8.66826C642.192 6.99089 646.306 7.02342 649.749 8.74125C651.16 9.4451 653.497 10.021 654.943 10.021C656.389 10.021 657.794 10.3808 658.066 10.8205C658.337 11.2603 659.738 11.6201 661.178 11.6201C665.165 11.6201 672.876 13.3426 672.392 14.1254C672.156 14.5065 672.902 14.8183 674.049 14.8183C675.196 14.8183 677.287 15.438 678.694 16.1953C680.587 17.2137 683.23 17.5801 688.849 17.6026C694.888 17.6268 696.895 17.937 698.643 19.1161C699.853 19.9318 700.837 20.8277 700.831 21.1069C700.824 21.3861 698.979 22.6298 696.73 23.8705C691.299 26.8671 692.447 28.173 699.016 26.4707C703.272 25.368 704.249 25.3609 707.773 26.4072C710.663 27.2656 712.468 27.3758 714.428 26.8136C716.385 26.2524 718.394 26.3729 721.802 27.2561C725.359 28.1776 727.202 28.2713 729.456 27.6453C734.599 26.2167 740.927 26.6202 744.599 28.6108C746.424 29.6003 749.789 31.431 752.077 32.6792C756.133 34.8917 756.31 34.9162 759.123 33.6549C761.478 32.5992 762.791 32.5109 766.264 33.1749C769.717 33.8349 770.973 33.7545 772.917 32.7491C774.819 31.7655 775.125 31.282 774.4 30.4073C772.996 28.7157 777.977 28.0869 784.097 29.183C786.9 29.6851 790.453 30.1863 791.992 30.2967C793.531 30.4072 796.538 31.2843 798.675 32.2459C801.932 33.7123 804.391 34.0445 813.923 34.3063C822.968 34.5547 825.847 34.9167 828.029 36.0795C830.244 37.2599 832.768 37.5601 841.165 37.642C848.89 37.7173 852.351 38.0836 854.643 39.0685C858.342 40.6583 859.821 40.0753 857.808 37.8213C856.36 36.2 856.368 36.1977 861.954 36.7526C871.313 37.6824 882.539 39.7304 886.34 41.2013C888.319 41.9671 892.091 42.8571 894.722 43.1789C897.352 43.5008 901.191 44.6186 903.253 45.6631C906.381 47.2484 907.398 47.4235 909.406 46.7232C912.153 45.7656 913.936 46.4552 918.131 50.099L920.738 52.3632L918.773 52.8563C916.802 53.3511 911.566 52.055 909.762 50.6256C909.232 50.2053 908.488 50.0528 908.109 50.2868C907.731 50.5208 905.861 50.1747 903.954 49.5177C899.487 47.9789 897.504 48.5569 899.538 50.8046C900.928 52.3397 900.898 52.372 898.248 52.1872C893.29 51.8413 894.653 53.3055 901.932 56.1446C905.889 57.6883 909.297 59.1154 909.504 59.316C910.255 60.0424 907.781 60.9429 905.98 60.5988C904.004 60.2209 899.133 62.3423 899.133 63.581C899.133 63.9923 898.364 65.0459 897.423 65.9222C895.852 67.3861 895.527 67.4194 893.425 66.3326C891.458 65.3155 890.829 65.3049 888.939 66.2573C887.729 66.8665 885.663 67.6243 884.346 67.9412C883.029 68.2582 881.504 68.8893 880.956 69.3437C879.347 70.6791 882.184 74.5663 886.18 76.5007C888.357 77.5543 889.933 78.9659 890.401 80.2816C890.812 81.4364 891.684 83.333 892.338 84.4962C893.404 86.392 893.395 86.6619 892.25 87.1015C891.41 87.4237 891.163 88.0695 891.528 88.9844C891.834 89.7503 892.181 91.2764 892.297 92.3758C892.414 93.4752 892.766 94.9718 893.081 95.7017C893.49 96.6518 893.152 97.1873 891.892 97.5874C890.489 98.0327 889.543 97.4962 887.236 94.9459C885.644 93.1857 882.988 90.7624 881.335 89.5607C879.681 88.3591 876.718 85.2342 874.75 82.6167C871.279 77.9994 871.208 77.789 872.36 75.5616C873.013 74.2989 873.56 72.4383 873.576 71.427C873.592 70.4157 874.099 68.6947 874.703 67.6025C875.858 65.5165 875.413 63.851 872.944 61.0187C871.323 59.1592 868.439 60.5531 869.166 62.8447C869.836 64.9558 867.781 65.6399 865.416 64.0925C864.391 63.4217 862.032 62.6301 860.173 62.3333C856.981 61.8239 856.744 61.9219 855.917 64.092C855.435 65.3559 855.233 67.354 855.468 68.5322C855.833 70.368 855.579 70.7436 853.69 71.1583C852.405 71.4406 850.205 71.1067 848.411 70.3573C846.441 69.5341 844.586 69.2853 843.25 69.665C842.103 69.9911 838.226 70.2872 834.633 70.3229C828.942 70.3795 827.846 70.6279 826.116 72.2526C825.024 73.2783 823.713 75.7969 823.201 77.8495C822.69 79.9022 821.752 82.3826 821.118 83.3615C820.022 85.0534 820.128 85.2243 823.261 86.8229C826.662 88.558 830.37 89.0151 833.181 88.0457C835.35 87.298 841.964 92.455 844.03 96.5034C844.876 98.1616 846.274 99.8963 847.137 100.358C850.403 102.106 851.066 113.574 848.335 121.071C846.445 126.262 844.328 127.96 841.221 126.778C840.033 126.327 838.942 125.957 838.795 125.957C838.648 125.957 837.759 127.433 836.818 129.238C835.583 131.607 835.343 132.8 835.952 133.534C837.117 134.938 836.255 136.764 833.925 137.825C832.85 138.315 831.97 139.064 831.97 139.49C831.97 139.916 834.472 141.986 837.529 144.09C841.419 146.767 843.497 148.823 844.45 150.937C845.2 152.599 845.667 154.09 845.488 154.252C845.309 154.413 843.675 155.295 841.856 156.212L838.549 157.879L836.56 153.312C834.333 148.2 832.422 146.145 829.058 145.239C827.363 144.783 826.773 144.137 826.773 142.736C826.773 141.453 825.943 140.363 824.181 139.33C821.614 137.826 821.563 137.828 818.832 139.516C816.098 141.206 816.066 141.207 815.227 139.638C814.761 138.768 814.38 137.505 814.38 136.832C814.38 136.159 813.708 135.249 812.886 134.809C811.665 134.155 810.893 134.55 808.648 136.98C807.138 138.613 805.204 140.347 804.35 140.833C803.025 141.587 802.954 141.905 803.868 143.006C804.457 143.716 806.49 145.163 808.386 146.223C811.402 147.909 811.979 148.004 812.996 146.988C813.963 146.021 814.749 145.985 817.667 146.777L821.176 147.73L819.22 149.037C815.594 151.461 814.45 152.734 813.932 154.921C813.508 156.717 813.761 157.257 815.373 157.991C816.449 158.481 818.084 160.437 819.007 162.337C819.93 164.237 821.774 166.434 823.104 167.22C826.031 168.949 826.88 170.786 825.189 171.731C823.614 172.613 824.366 173.931 826.445 173.931C828.936 173.931 828.95 175.416 826.543 183.99C823.628 194.373 820.997 197.837 814.112 200.356C811.401 201.348 808.103 202.219 806.784 202.292C803.717 202.462 801.339 203.76 799.264 206.398L797.618 208.491L796.849 206.471C795.847 203.836 793.55 203.173 790.252 204.568C787.229 205.847 785.237 207.886 784.433 210.523C783.714 212.882 786.26 217.033 790.477 220.372C793.938 223.114 797.822 229.993 798.734 234.999C799.527 239.352 798.122 242.21 794.351 243.91C792.634 244.685 791.026 245.955 790.779 246.733C790.187 248.601 786.636 250.926 785.985 249.873C785.714 249.434 785.704 248.41 785.962 247.596C786.22 246.782 786.207 245.533 785.934 244.819C785.54 243.793 785.103 243.7 783.84 244.376C782.525 245.08 782.018 244.901 780.956 243.362C778.347 239.578 770.784 233.498 768.687 233.498C767.949 233.498 767.664 234.387 767.79 236.297C767.892 237.836 767.578 240.837 767.093 242.965C766.304 246.433 766.385 247.069 767.873 249.082C768.786 250.317 769.761 252.232 770.038 253.338C770.32 254.46 772.632 257.024 775.277 259.145C779.684 262.68 780.149 263.378 782.004 269.25C783.1 272.719 783.996 275.899 783.996 276.316C783.996 277.672 782.326 277.123 778.84 274.619C775.237 272.031 772.935 267.937 771.016 260.701C770.183 257.559 769.269 256.212 766.676 254.304C763.496 251.965 763.4 251.761 763.656 247.89C763.802 245.692 764.162 242.575 764.457 240.965C764.872 238.697 764.529 237.073 762.936 233.768C761.805 231.421 760.467 227.816 759.964 225.757C758.838 221.157 757.249 220.387 754.439 223.079C753.277 224.192 752.102 225.103 751.827 225.103C750.555 225.103 748.806 222.394 749.226 221.072C749.988 218.672 745.303 210.306 742.562 209.171C741.062 208.55 739.691 207.043 738.773 205.008C737.179 201.472 735.39 200.119 733.603 201.097C732.955 201.452 730.36 202.166 727.836 202.683C723.21 203.632 721.55 205.033 722.183 207.455C722.417 208.347 721.607 209.208 719.666 210.134C718.092 210.884 716.397 212.394 715.898 213.488C715.399 214.582 714.302 215.696 713.459 215.964C712.615 216.232 711.315 217.455 710.568 218.683C709.821 219.911 707.597 222.155 705.626 223.67C702.928 225.744 702.085 226.904 702.22 228.363C703.003 236.889 701.801 244.023 698.865 248.259C696.001 252.391 695.8 252.506 693.377 251.403C692.043 250.795 691.223 249.608 690.883 247.796C690.604 246.311 688.994 242.127 687.304 238.498C677.08 216.539 675.569 212.349 676.44 208.384C677.028 205.705 675.616 201.662 674.252 202.119C673.705 202.303 673.248 202.962 673.236 203.584C673.168 207.233 669.068 207.793 665.865 204.591L663.743 202.469L665.569 201.793C667.623 201.034 667.434 198.984 665.345 199.36C664.602 199.493 662.903 198.684 661.569 197.561C660.234 196.438 658.834 195.519 658.458 195.519C658.081 195.519 657.544 194.796 657.263 193.911C656.526 191.589 652.285 189.569 650.159 190.528C648.246 191.39 630.891 191.21 627.986 190.298C626.939 189.969 625.004 188.465 623.684 186.955C621.3 184.226 621.264 184.215 617.688 185.179C614.299 186.093 613.807 186.007 609.243 183.703C605.299 181.712 604.117 180.638 602.9 177.938C601.347 174.493 597.897 171.999 595.799 172.804C595.139 173.058 594.367 174.317 594.085 175.603C593.679 177.45 594.093 178.649 596.053 181.315C597.418 183.171 598.905 186.066 599.358 187.747C600.331 191.359 602.251 192.433 603.843 190.256C604.803 188.942 605.063 188.896 605.713 189.926C606.128 190.584 606.352 191.481 606.211 191.921C605.766 193.303 610.38 195.578 612.533 195.037C613.621 194.764 615.945 192.911 617.698 190.92C620.461 187.781 621.425 187.57 620.953 190.205C620.635 191.979 622.031 194.057 624.341 195.252C627.909 197.096 632.879 201.205 632.879 202.31C632.879 202.819 631.945 204.108 630.803 205.174C629.66 206.24 628.017 208.496 627.15 210.187C625.043 214.296 618.937 220.306 616.87 220.306C614.48 220.306 610.925 222.323 609.51 224.483C608.84 225.506 607.077 226.95 605.593 227.69C597.994 231.484 588.844 235.33 586.269 235.813C583.516 236.33 583.293 236.205 581.834 233.329C580.99 231.663 580.031 228.321 579.705 225.902C579.28 222.757 578.456 220.757 576.811 218.878C575.546 217.434 574.511 215.905 574.511 215.481C574.511 215.057 573.069 213.224 571.305 211.406C569.109 209.143 567.69 206.687 566.8 203.61C566.086 201.139 564.632 198.038 563.57 196.718C556.232 187.606 554.059 184.393 552.965 181.038C551.515 176.59 550.289 175.872 549.723 179.139L549.322 181.457L546.617 178.042C542.449 172.78 541.924 175.172 545.836 181.596C547.688 184.636 550.639 190.002 552.395 193.52C554.151 197.038 556.428 201.03 557.454 202.391C558.511 203.792 559.32 205.982 559.32 207.441C559.32 210.454 560.219 212.334 563.75 216.708C565.17 218.467 566.573 221.035 566.867 222.415C567.245 224.184 568.789 226.035 572.107 228.696C577.149 232.74 580.416 236.962 581.227 240.48C581.532 241.802 582.686 243.158 584.149 243.915C586.379 245.068 587.164 245.036 594.21 243.51C598.414 242.599 602.867 241.329 604.106 240.689L606.358 239.524L606.893 242.689C607.379 245.565 606.856 246.95 601.164 257.867C595.044 269.605 594.758 269.993 588.672 274.797C585.247 277.502 581.662 280.812 580.707 282.155C579.751 283.497 576.693 287.122 573.912 290.21C565.794 299.223 564.691 307.15 570.074 317.774C571.442 320.473 571.976 322.516 571.652 323.807C571.382 324.881 571.555 327.594 572.036 329.836C572.793 333.365 572.707 334.309 571.397 336.876C569.507 340.58 568.003 341.911 562.718 344.56C560.409 345.717 558.52 347.005 558.52 347.423C558.52 347.84 556.901 350.005 554.922 352.233C552.943 354.461 551.324 356.646 551.324 357.089C551.324 357.532 552.066 359.348 552.973 361.125C555.691 366.453 553.864 370.314 547.349 373.012C544.602 374.15 543.7 376.473 544.38 380.66C544.736 382.854 544.509 383.584 543.266 384.249C542.408 384.708 540.857 386.418 539.819 388.048C536.541 393.195 527.12 402.303 522.839 404.462C519.268 406.264 518.354 406.422 515.73 405.698C513.417 405.059 511.55 405.16 507.671 406.135C501.388 407.713 502.054 407.778 499.621 405.345C497.928 403.652 497.645 402.786 498.023 400.454ZM607.293 145.624C607.293 143.441 606.827 141.757 606.041 141.105C605.353 140.534 604.237 138.998 603.562 137.692C602.445 135.533 602.45 135.363 603.615 135.81C605.153 136.4 607.293 135.69 607.293 134.59C607.293 134.156 606.55 132.755 605.64 131.478C604.271 129.555 603.722 129.299 602.442 129.984C601.407 130.538 600.897 130.543 600.897 129.999C600.897 129.553 599.47 128.46 597.725 127.57C593.865 125.601 592.492 123.419 593.696 121.169C594.607 119.467 597.862 118.274 599.252 119.133C601.127 120.291 601.679 118.584 600.133 116.412C596.383 111.145 591.161 111.492 584.685 117.437C580.506 121.274 580.144 122.294 582.507 123.559C583.387 124.029 584.106 124.949 584.106 125.603C584.106 126.257 585.528 128.335 587.267 130.221C591.27 134.564 592.004 136.549 591.509 141.689L591.11 145.827L596.603 148.646C599.624 150.196 602.204 151.482 602.336 151.504C602.468 151.526 603.637 150.994 604.934 150.323C606.999 149.256 607.293 148.668 607.293 145.624ZM579.739 366.99C579.268 363.218 579.464 362.399 581.72 358.732C584.013 355.006 584.178 354.288 583.673 350.24C582.942 344.396 584.185 341.324 587.582 340.579C590.783 339.877 597.707 333.764 599.366 330.175L600.634 327.434L601.516 329.368C603.733 334.234 603.507 336.372 599.65 347.046C597.586 352.757 595.371 359.589 594.729 362.228C592.673 370.672 591.504 372.708 588.137 373.717C584.551 374.791 584.898 374.795 582.907 373.665C580.649 372.385 580.328 371.709 579.739 366.99ZM925.368 315.496C923.093 312.115 918.93 309.556 916.804 310.231C915.944 310.504 914.497 311.987 913.588 313.527C912.042 316.149 911.745 316.293 908.933 315.793C907.281 315.5 904.974 314.369 903.806 313.28C902.321 311.896 901.183 311.458 900.024 311.826C899.112 312.116 897.791 312.031 897.088 311.637C895.989 311.022 896.097 310.734 897.855 309.582C899.891 308.248 899.894 308.23 898.528 305.365C897.43 303.064 895.917 301.865 890.966 299.376C887.562 297.664 883.713 296.264 882.414 296.264C879.441 296.264 878.213 293.523 880.453 291.885C881.785 290.911 881.59 290.669 878.114 288.98C874.423 287.187 874.371 287.111 876.134 286.132C877.13 285.579 878.734 285.114 879.698 285.098C881.572 285.068 883.942 287.771 883.942 289.937C883.942 290.66 884.719 292.239 885.669 293.447C887.372 295.612 887.416 295.621 888.668 294.058C889.367 293.186 891.597 291.521 893.624 290.36L897.31 288.247L902.419 290.552C905.229 291.82 909.218 293.466 911.284 294.211C913.349 294.955 917.48 297.167 920.464 299.127C926.163 302.87 928.638 306.025 927.218 307.736C926.061 309.131 930.607 315.483 935.313 319.047C940.486 322.964 940.398 323.326 934.714 321.534C929.654 319.938 927.359 318.456 925.368 315.496ZM835.167 318.215C834.009 317.574 833.673 317.102 834.369 317.093C835.797 317.074 838.081 318.404 837.543 318.942C837.335 319.15 836.266 318.823 835.167 318.215ZM857.783 313.664C860.173 314.432 860.21 314.496 858.312 314.572C857.189 314.617 854.568 315.733 852.488 317.052C847.741 320.063 846.595 320.095 848.686 317.158C850.953 313.974 854.502 312.611 857.783 313.664ZM825.216 313.786C825.827 312.798 830.951 312.853 831.57 313.854C831.842 314.294 831.593 314.659 831.018 314.665C830.442 314.671 829.252 314.83 828.372 315.02C827.493 315.209 826.321 315.174 825.769 314.941C825.216 314.708 824.967 314.188 825.216 313.786ZM841.627 313.071C845.422 314.093 845.409 314.253 841.476 314.963C839.433 315.332 838.31 315.149 837.639 314.341C836.186 312.59 837.86 312.057 841.627 313.071ZM803.825 310.957C801.757 310.279 799.321 309.96 798.412 310.249C796.581 310.83 788.794 308.541 788.794 307.421C788.794 304.866 795.962 304.672 799.771 307.124C801.193 308.04 802.314 308.101 805.32 307.427C808.651 306.681 809.345 306.773 811.302 308.22C812.519 309.12 813.878 309.856 814.32 309.856C815.901 309.856 820.7 312.531 820.295 313.186C820.068 313.554 819.454 313.804 818.93 313.743C818.406 313.681 815.639 313.307 812.781 312.911C809.922 312.515 805.892 311.635 803.825 310.957ZM774.38 290.216C773.45 288.045 771.317 284.47 769.641 282.271C767.966 280.073 766.042 277.194 765.367 275.875C764.692 274.556 762.641 272.037 760.809 270.278C756.948 266.569 754.573 262.672 756.191 262.699C758.289 262.736 763.69 265.739 766.006 268.157C772.397 274.828 773.706 276.015 776.723 277.874C779.634 279.668 781.012 281.534 781.151 283.871C781.177 284.31 782.005 285.57 782.991 286.669C783.976 287.768 785.837 289.836 787.124 291.264C788.412 292.692 789.698 294.919 789.982 296.214C790.913 300.453 787.5 304.188 784.341 302.389C781.403 300.715 776.105 294.24 774.38 290.216ZM834.756 299.491C835.028 298.635 834.698 297.093 834.021 296.06C832.907 294.361 832.918 294.005 834.134 292.269C834.872 291.215 835.742 288.386 836.069 285.982C836.471 283.016 837.266 281.006 838.542 279.731C840.287 277.986 840.725 277.908 844.648 278.652C848.016 279.291 849.342 279.212 851.175 278.264C854.245 276.676 854.469 276.747 853.45 278.985C852.154 281.829 849.564 282.739 846.833 281.308C841.958 278.753 835.488 282.55 838.901 285.963C840.156 287.218 840.85 287.332 843.174 286.665C847.157 285.523 848.728 285.733 846.254 287.077C843.454 288.598 842.923 290.286 844.366 293.076C845.022 294.346 845.56 296.315 845.56 297.451C845.56 299.271 845.368 299.416 843.959 298.662C843.079 298.191 841.809 296.489 841.137 294.881C839.925 291.98 839.904 291.97 838.352 293.521C836.991 294.882 836.899 295.486 837.644 298.183C838.317 300.621 838.272 301.427 837.432 301.959C836.02 302.854 835.364 302.828 834.761 301.853C834.49 301.41 834.488 300.347 834.756 299.491ZM815.293 294.229C813.304 294.86 805.402 293.252 804.619 292.057C803.996 291.106 802.165 285.247 801.185 281.072C800.916 279.924 801.185 278.434 801.814 277.573C802.73 276.322 803.203 276.227 804.652 277.003C806.182 277.822 806.506 277.682 807.345 275.841C807.869 274.69 809.615 273.076 811.225 272.255C812.929 271.385 814.567 269.758 815.147 268.356C815.817 266.74 817.039 265.655 818.869 265.051C820.367 264.556 822.532 262.921 823.678 261.418C824.825 259.914 826.19 258.684 826.711 258.684C827.232 258.684 828.81 259.872 830.217 261.324L832.775 263.963L830.724 266.721C828.395 269.854 828.517 272.548 831.156 276.255L832.755 278.499L830.763 279.804C829.668 280.522 828.773 281.55 828.775 282.09C828.783 283.921 823.659 294.477 822.374 295.279C821.48 295.838 820.439 295.732 818.904 294.928C817.698 294.296 816.073 293.981 815.293 294.229ZM865.052 293.066C865.657 293.066 867.349 293.305 868.812 293.598C871.066 294.048 871.234 294.224 869.912 294.741C868.176 295.42 867.404 295.449 865.352 294.913C863.697 294.481 863.467 293.066 865.052 293.066ZM862.428 280.134C862.867 279.312 863.014 278.295 862.753 277.874C862.032 276.707 863.838 273.876 865.304 273.876C866.479 273.876 866.475 274.013 865.253 275.363C864.196 276.531 864.078 277.303 864.706 278.954C865.975 282.292 864.595 284.594 862.55 282.549C861.911 281.91 861.874 281.169 862.428 280.134ZM460.974 279.92C460.974 279.726 461.334 279.345 461.773 279.073C462.213 278.801 462.573 278.96 462.573 279.426C462.573 279.892 462.213 280.273 461.773 280.273C461.334 280.273 460.974 280.114 460.974 279.92ZM465.771 270.325C465.771 270.131 466.131 269.75 466.571 269.478C467.01 269.207 467.37 269.365 467.37 269.831C467.37 270.297 467.01 270.678 466.571 270.678C466.131 270.678 465.771 270.519 465.771 270.325ZM846.293 255.102C843.953 255.615 843.872 255.553 844.748 253.915C845.474 252.558 846.147 252.289 847.867 252.667C849.525 253.031 850.585 252.663 852.209 251.157C853.391 250.062 854.366 248.519 854.375 247.729C854.4 245.71 857.37 252.478 858.047 256.097C858.562 258.844 858.497 258.994 857.248 257.959C855.393 256.422 853.607 258.016 855.129 259.85C855.737 260.581 855.814 261.083 855.321 261.083C854.863 261.083 853.923 261.3 853.231 261.566C852.303 261.922 851.553 261.067 850.368 258.304C848.843 254.746 848.64 254.586 846.293 255.102ZM704.585 259.716C703.691 258.264 703.183 251.749 703.829 250.02C704.514 248.186 704.565 248.209 706.602 251.219C709.044 254.827 709.825 257.141 709.019 258.377C708.248 259.559 705.078 260.517 704.585 259.716ZM827.173 250.867C827.173 250.525 828.776 248.456 830.735 246.269C833.606 243.065 834.304 242.612 834.333 243.936C834.353 244.84 833.151 246.909 831.662 248.534C829.138 251.289 827.173 252.311 827.173 250.867ZM844.622 246.172C845.185 245.165 845.42 245.156 846.209 246.106C846.915 246.958 846.884 247.564 846.077 248.668C845.086 250.023 844.987 250.027 844.491 248.733C844.199 247.974 844.258 246.822 844.622 246.172ZM232.195 245.618C232.684 245.028 232.848 244.308 232.559 244.019C232.27 243.729 232.779 243.493 233.69 243.493C234.954 243.493 235.249 243.872 234.93 245.092C234.687 246.02 233.839 246.691 232.908 246.691C231.657 246.691 231.5 246.455 232.195 245.618ZM848.99 243.293C848.812 242.963 849.005 242.693 849.42 242.693C850.218 242.693 851.341 245.976 850.747 246.571C850.555 246.763 850.154 246.239 849.856 245.406C849.558 244.574 849.168 243.623 848.99 243.293ZM843.404 240.416C844.457 240.651 844.496 240.983 843.651 242.547C842.836 244.057 842.484 244.2 841.753 243.32C840.63 241.967 841.725 240.041 843.404 240.416ZM851.206 240.572C850.289 239.406 849.672 238.318 849.835 238.155C850.484 237.505 852.733 238.937 853.929 240.761C855.767 243.568 853.435 243.406 851.206 240.572ZM838.062 237.477C837.35 236.765 836.767 235.768 836.767 235.262C836.767 234.756 837.557 235.132 838.522 236.097C839.487 237.062 840.07 238.058 839.817 238.311C839.564 238.564 838.774 238.189 838.062 237.477ZM209.912 236.003C209.912 235.502 210.284 235.55 210.858 236.123C211.378 236.644 211.618 237.255 211.391 237.483C211.164 237.71 210.738 237.656 210.445 237.363C210.152 237.07 209.912 236.458 209.912 236.003ZM205.914 236.297C205.914 235.857 206.073 235.497 206.266 235.497C206.46 235.497 206.841 235.857 207.113 236.297C207.385 236.736 207.226 237.096 206.761 237.096C206.295 237.096 205.914 236.736 205.914 236.297ZM842.728 234.236C841.18 234.624 840.112 234.001 837.214 231.019C833.12 226.807 832.324 225.031 833.525 222.787C833.989 221.92 834.369 220.128 834.369 218.806C834.369 214.466 837.276 214.641 839.407 219.11C840.587 221.586 840.595 222.117 839.485 224.773C838.291 227.632 838.314 227.759 840.445 229.983C841.984 231.59 843.139 232.135 844.355 231.83C845.383 231.572 846.492 231.891 847.097 232.62C848.536 234.355 847.908 235.593 846.104 234.576C845.303 234.124 843.783 233.971 842.728 234.236ZM181.327 216.578C180.778 216.356 180.328 215.845 180.328 215.441C180.328 214.289 183.857 214.585 185.572 215.882C187.047 216.998 187.004 217.054 184.726 217.019C183.406 216.998 181.877 216.799 181.327 216.578ZM201.56 216.124C200.843 215.723 199.258 215.614 198.039 215.881C196.82 216.149 194.945 216.017 193.872 215.588C192.147 214.898 192.3 214.817 195.192 214.884C199.443 214.984 200.578 214.291 199.491 212.261C198.72 210.82 198.952 210.711 202.767 210.711C206.456 210.711 211.779 212.403 212.682 213.863C213.281 214.833 202.992 216.925 201.56 216.124ZM216.897 216.63C215.949 215.682 217.127 214.709 219.22 214.709C220.478 214.709 221.115 215.085 220.91 215.708C220.541 216.827 217.738 217.471 216.897 216.63ZM795.36 215.358C793.243 213.241 795.339 210.711 799.209 210.711C800.925 210.711 800.926 210.725 799.454 213.245C797.738 216.183 796.714 216.712 795.36 215.358ZM224.704 214.419C225.363 214.166 225.903 214.308 225.903 214.734C225.903 215.16 225.363 215.508 224.704 215.508C224.044 215.508 223.504 215.367 223.504 215.194C223.504 215.021 224.044 214.673 224.704 214.419ZM185.19 208.968C182.685 208.934 182.084 208.687 182.698 207.947C183.292 207.231 182.439 206.278 179.5 204.373C173.736 200.639 170.518 199.909 166.646 201.458C163.016 202.911 162.738 202.952 162.738 202.037C162.738 200.363 169.101 198.523 173.683 198.871C178.065 199.204 180.519 200.137 189.123 204.74C196.195 208.524 196.203 208.531 193.92 209.182C191.328 209.921 189.502 210.024 188.941 209.462C188.694 209.216 187.006 208.993 185.19 208.968ZM194.72 202.715C196.27 201.713 197.119 201.713 197.119 202.715C197.119 203.155 196.309 203.509 195.32 203.502C193.865 203.493 193.75 203.342 194.72 202.715ZM829.641 198.877C828.838 197.351 828.921 196.611 830.129 194.543C831.993 191.35 833.253 190.952 833.858 193.363C834.495 195.9 832.655 202.066 831.49 201.297C831.006 200.978 830.174 199.888 829.641 198.877ZM199.97 200.231C200.503 199.368 203.515 199.27 203.515 200.117C203.514 200.446 202.617 200.768 201.521 200.831C200.425 200.894 199.727 200.625 199.97 200.231ZM184.159 192.526C182.88 191.058 183.066 189.123 184.486 189.123C184.94 189.123 185.128 189.825 184.904 190.683C184.679 191.542 184.907 192.392 185.41 192.573C185.913 192.754 186.113 193.133 185.853 193.416C185.594 193.698 184.832 193.298 184.159 192.526ZM188.803 186.244C188.519 185.503 188.466 184.716 188.686 184.496C188.906 184.276 189.318 184.703 189.603 185.445C189.887 186.186 189.94 186.973 189.72 187.193C189.501 187.413 189.088 186.986 188.803 186.244ZM183.793 185.525C183.793 184.865 184.478 184.325 185.316 184.325C186.669 184.325 186.705 184.458 185.639 185.525C184.98 186.184 184.294 186.724 184.116 186.724C183.938 186.724 183.793 186.184 183.793 185.525ZM852.417 164.551C849.883 161.539 850.78 159.529 853.781 161.495C855.939 162.909 857.066 165.797 856.27 167.871C855.667 169.443 854.358 169.529 854.358 167.996C854.358 167.37 853.484 165.82 852.417 164.551ZM858.814 162.201C858.295 160.85 859.519 159.574 861.354 159.551C862.625 159.535 862.648 161.323 861.394 162.577C860.09 163.881 859.421 163.783 858.814 162.201ZM857.354 157.982C855.312 158.549 853.906 158.556 852.956 158.002C852.188 157.555 851.982 157.178 852.497 157.164C853.013 157.151 854.52 156.228 855.844 155.113C857.554 153.675 858.806 153.225 860.157 153.564C861.588 153.923 863.133 153.236 866.382 150.795C872.707 146.042 873.279 144.543 870.705 139.464C868.235 134.59 868.924 133.021 872.584 135.183C875.248 136.756 877.758 141.263 877.029 143.164C876.766 143.848 877.157 145.994 877.898 147.934C878.946 150.678 879.046 151.833 878.346 153.139C877.319 155.058 874.462 156.341 871.212 156.341C869.391 156.341 868.847 156.808 868.252 158.883L867.523 161.425L866.119 159.283C864.567 156.913 862.374 156.588 857.354 157.982ZM542.209 156.554C541.255 155.599 541.762 154.741 543.281 154.741C544.135 154.741 545.056 154.382 545.328 153.942C546.071 152.739 547.338 152.981 546.858 154.233C546.364 155.519 542.902 157.247 542.209 156.554ZM512.546 154.072L515.744 154.018C519.727 153.951 522.661 154.698 522.084 155.632C521.441 156.673 517.697 156.431 514.944 155.17L512.546 154.072ZM480.965 144.915C482.965 144.391 487.394 145.042 487.303 145.846C487.272 146.121 487.002 146.942 486.703 147.67C486.212 148.867 485.823 148.821 482.645 147.194C479.445 145.556 479.294 145.351 480.965 144.915ZM466.88 134.9C468.506 133.274 469.769 134.417 469.769 137.513C469.769 141.169 467.763 141.826 466.619 138.544C465.927 136.559 465.981 135.799 466.88 134.9ZM450.38 138.95C450.197 139.5 449.449 140.066 448.717 140.208C447.789 140.387 447.533 140.085 447.869 139.208C448.437 137.73 450.87 137.48 450.38 138.95ZM865.219 126.104C866.28 124.589 866.276 124.134 865.183 122.02C863.384 118.541 863.637 118.331 866.756 120.71C868.298 121.886 871.341 123.377 873.518 124.024C878.017 125.36 879.102 126.409 876.757 127.153C875.871 127.434 875.146 128.186 875.146 128.825C875.146 129.694 874.595 129.844 872.948 129.423C868.729 128.343 867.53 128.607 867.801 130.555C868.132 132.941 867.594 132.823 865.642 130.082C864.178 128.026 864.138 127.647 865.219 126.104ZM467.903 131.021C466.976 130.094 467.325 128.544 468.57 128.067C469.436 127.734 469.769 128.154 469.769 129.58C469.769 131.5 468.986 132.104 467.903 131.021ZM860.568 114.164C859.89 113.394 858.255 110.605 856.935 107.966C855.615 105.326 852.125 100.479 849.18 97.1946C845.889 93.5249 844.217 91.0917 844.843 90.8832C845.403 90.6966 846.603 91.5327 847.511 92.7412C849.71 95.6705 852.419 98.2142 856.694 101.364C860.237 103.975 861.989 106.392 859.703 105.514C857.066 104.503 857.724 106.904 861.136 110.745C863.125 112.985 864.752 114.985 864.752 115.19C864.752 116.162 861.662 115.404 860.568 114.164ZM275.476 112.764C275.476 112.105 275.824 111.565 276.25 111.565C276.676 111.565 276.818 112.105 276.564 112.764C276.311 113.424 275.963 113.964 275.79 113.964C275.617 113.964 275.476 113.424 275.476 112.764ZM268.319 109.872L273.924 104.322C277.007 101.27 279.932 98.7722 280.425 98.7722C280.945 98.7722 280.789 99.3596 280.054 100.172C278.389 102.011 279.524 104.078 282.566 104.746C283.894 105.037 285.218 106.055 285.729 107.178C286.55 108.979 286.411 109.163 283.641 109.932C280.735 110.74 277.265 110.81 271.298 110.184L268.319 109.872ZM76.4696 104.448C73.6999 101.861 73.391 100.771 75.2276 100.066C76.8723 99.4349 79.9084 101.493 81.0592 104.018C82.2666 106.668 82.2452 106.768 80.4674 106.768C79.6344 106.768 77.8354 105.724 76.4696 104.448ZM432.438 98.7863C435.161 97.8038 434.709 96.7575 431.265 96.0687C428.903 95.5962 428.82 95.476 430.171 94.4876C430.976 93.8992 431.4 93.0385 431.113 92.5749C430.821 92.1012 431.643 91.3657 432.99 90.896C434.309 90.4363 435.388 89.7051 435.388 89.2711C435.388 87.4243 433.721 84.3176 432.795 84.4384C430.661 84.7168 429.672 84.3405 430.016 83.3806C430.213 82.8309 430.051 81.7515 429.655 80.9819C428.626 78.9809 430.991 74.8425 433.189 74.7975C433.519 74.7915 433.699 75.2266 433.589 75.7658C433.479 76.3051 434.233 76.8744 435.266 77.0309L437.142 77.3156L435.349 79.2242L433.556 81.1329L435.577 81.9014C437.747 82.7263 439.838 85.4136 441.967 90.1133C442.988 92.3651 443.658 92.9537 444.849 92.6423C447.293 92.0033 447.582 93.6591 445.29 95.1611C443.737 96.1787 443.442 96.7521 444.122 97.4323C444.803 98.1126 443.462 98.569 438.811 99.2402C435.389 99.734 431.33 100.371 429.791 100.656C427.65 101.053 427.368 100.989 428.592 100.386C429.471 99.952 431.202 99.2322 432.438 98.7863ZM415.801 92.3704C416.553 90.9173 416.698 89.8861 416.195 89.5754C414.81 88.719 415.329 87.6262 417.365 87.1153C418.446 86.8439 419.75 86.1175 420.261 85.501C421.327 84.2175 426.252 83.9813 426.992 85.1782C427.263 85.6172 426.924 86.7767 426.239 87.7548C425.554 88.733 424.994 90.49 424.994 91.6593C424.994 93.4424 424.446 93.9755 421.595 94.9648C419.726 95.6135 417.614 96.3965 416.901 96.7046C416.065 97.066 415.429 96.8048 415.108 95.969C414.834 95.2562 415.146 93.6369 415.801 92.3704ZM429.791 88.0253C429.791 87.8314 430.151 87.4503 430.591 87.1785C431.03 86.9068 431.39 87.0654 431.39 87.5311C431.39 87.9968 431.03 88.3779 430.591 88.3779C430.151 88.3779 429.791 88.2192 429.791 88.0253ZM75.1951 81.9735C76.8201 80.625 77.626 81.5398 76.6803 83.6593C76.0281 85.1209 75.7908 85.1911 74.9457 84.1728C74.1624 83.229 74.2123 82.7892 75.1951 81.9735ZM73.6953 78.1596C73.4253 77.7227 73.7401 76.9206 74.3949 76.3772C75.6949 75.2982 75.9664 76.1444 74.8736 77.8691C74.4561 78.528 73.9935 78.6421 73.6953 78.1596ZM27.8787 75.2701C29.1825 74.9543 29.9534 75.0305 29.6943 75.4496C29.4468 75.8502 28.2473 76.3791 27.0288 76.625C25.8103 76.8709 24.1837 77.3156 23.4141 77.6134C22.6445 77.9111 22.0149 77.9274 22.0149 77.6496C22.0149 77.0872 24.4393 76.1034 27.8787 75.2701ZM497.154 68.6589C495.679 68.0637 495.94 67.1462 497.62 67.0196C498.427 66.9589 499.086 67.422 499.086 68.0488C499.086 69.2393 498.809 69.3268 497.154 68.6589ZM315.438 54.0344C316.132 52.3593 316.153 51.3059 315.517 50.1172C314.193 47.6432 315.92 44.744 320.338 42.0257C322.436 40.7347 324.531 38.9716 324.994 38.1078C326.274 35.7147 325.134 31.6137 322.905 30.5981C321.777 30.0841 321.163 29.2714 321.412 28.6219C321.98 27.1428 319.318 22.0908 316.666 19.6157C314.715 17.7939 313.876 17.6125 307.194 17.5687C298.095 17.5092 296.4 17.0033 296.55 14.3926C296.613 13.3081 296.853 12.4205 297.085 12.4202C297.316 12.4199 300.554 12.0446 304.281 11.5862C309.039 11.0009 313.305 9.79395 318.608 7.53236C326.819 4.03083 327.445 3.96242 347.036 4.42292C353.223 4.56833 358.914 4.11047 366.226 2.87919C373.035 1.73254 378.045 1.30029 380.75 1.62608C383.049 1.9029 386.377 1.72034 388.256 1.21437C392.616 0.0402205 403.946 1.4526 408.402 3.72586C411.036 5.0698 412.43 5.24726 416.875 4.80472C421.676 4.3267 422.039 4.38957 420.596 5.44953C419.716 6.09549 417.018 6.88457 414.599 7.20303C409.351 7.89409 404.528 11.6348 405.807 14.0232C406.358 15.0535 405.962 15.9329 404.18 17.6408C402.884 18.8818 401.635 20.4946 401.403 21.2246C400.847 22.9786 393.778 26.2429 390.273 26.3646C386.38 26.4998 385.973 27.3274 388.984 28.9855C390.406 29.7688 392.482 31.1035 393.597 31.9515L395.625 33.4932L393.792 34.1713C392.386 34.6911 391.246 34.356 388.908 32.7356C385.735 30.5368 382.321 30.5257 384.143 32.7202C384.853 33.576 384.682 33.9084 383.353 34.256C380.382 35.0331 382.483 36.5695 385.76 36.0159C387.846 35.6636 389.019 35.8493 389.671 36.6351C390.447 37.5701 389.435 38.0031 383.611 39.2271C379.766 40.0353 374.641 40.7261 372.223 40.7622C367.729 40.8294 364.491 42.1193 359.728 45.7395C358.175 46.9201 354.874 48.09 351.012 48.829C342.939 50.3736 340.211 52.1599 335.346 59.0863C331.44 64.6496 329.084 66.7231 326.648 66.7428C325.988 66.7481 323.649 65.7713 321.45 64.5723C316.391 61.8131 313.972 57.5738 315.438 54.0344ZM260.082 54.852C258.413 52.2166 256.875 51.8818 252.37 53.1738C250.845 53.6111 249.134 53.6533 248.45 53.2703C246.082 51.9453 250.359 50.6421 255.122 51.2372C258.744 51.6898 259.549 51.5609 259.971 50.4601C260.82 48.2483 264.704 46.6633 266.864 47.6474C268.194 48.2532 269.403 48.2363 271.101 47.5881C273.385 46.7161 273.417 46.6374 271.925 45.5416C271.071 44.9148 270.097 44.402 269.76 44.402C269.422 44.402 268.205 42.7958 267.055 40.8326C265.904 38.8694 263.748 36.5123 262.263 35.5946C259.739 34.0349 259.406 34.0075 257.148 35.1748C255.175 36.1953 254.035 36.2667 250.912 35.5656C248.811 35.0937 245.876 34.9348 244.392 35.2124C241.816 35.694 237.097 34.4336 237.097 33.264C237.097 31.1154 243.868 26.2935 247.891 25.5777L251.089 25.0086L248.803 27.4443C245.649 30.8042 246.835 32.3505 250.26 29.3437C251.712 28.0683 254.223 26.7767 255.839 26.4736C258.308 26.0104 259.366 26.3124 262.466 28.3659C266.591 31.0982 266.909 31.1715 269.235 29.9265C270.636 29.1768 271.155 29.3827 272.677 31.2905C273.729 32.6101 276.079 34.047 278.37 34.7721C282.022 35.9276 282.272 36.1789 282.272 38.6977C282.272 40.5865 282.817 41.7784 284.099 42.6955C289.465 46.533 289.348 46.3745 288.187 48.2336C286.595 50.7827 285.338 50.9675 281.815 49.17C279.363 47.9195 278.293 47.7481 277.059 48.4084C275.549 49.2165 275.533 49.3891 276.748 51.7395C277.746 53.6685 277.837 54.6425 277.159 56.1303C276.324 57.9635 276.191 57.9919 273.923 56.819C269.464 54.5133 266.461 56.0305 270.621 58.4875C271.924 59.2573 272.808 60.1809 272.587 60.5399C271.812 61.793 267.856 61.1283 264.758 59.2247C263.041 58.1696 260.937 56.202 260.082 54.852ZM428.991 60.26C428.991 59.8935 429.531 59.5937 430.191 59.5937C430.85 59.5937 431.39 59.8935 431.39 60.26C431.39 60.6265 430.85 60.9263 430.191 60.9263C429.531 60.9263 428.991 60.6265 428.991 60.26ZM234.611 55.96C233.034 55.1313 231.81 55.0603 229.603 55.6698C225.85 56.7061 224.537 55.9478 226.442 53.8433C228.88 51.1492 230.533 50.6194 233.474 51.5899C236.784 52.6822 238.253 54.3058 237.36 55.8847C236.791 56.8913 236.402 56.9019 234.611 55.96ZM389.679 54.4404C388.67 54.7598 388.446 54.4825 388.755 53.2973C389.231 51.4783 396.256 48.8528 398.631 49.6065C399.459 49.8693 401.575 49.6532 403.334 49.1264C406.095 48.2993 406.826 48.3618 408.693 49.5847L410.854 51.0009L408.929 52.5013C407.304 53.7677 404.29 54.8665 397.009 56.8469C396.349 57.0263 394.73 56.4633 393.411 55.5959C392.092 54.7284 390.412 54.2085 389.679 54.4404ZM170.379 38.5802L166.426 36.8062L171.978 36.4064C175.031 36.1866 177.529 35.6468 177.529 35.2071C177.529 34.7673 175.371 34.2147 172.732 33.979C169.248 33.6678 168.592 33.4488 170.333 33.1794C173.25 32.7283 173.46 31.4652 170.733 30.7766C168.77 30.2806 168.784 30.2504 171.546 29.0603C176.333 26.9978 181.432 26.6027 185.949 27.9442C189.658 29.0456 190.238 29.0409 191.986 27.8952C193.223 27.0849 193.957 26.9493 194.02 27.5193C194.075 28.0096 194.165 28.8306 194.22 29.3436C194.406 31.0758 196.001 30.8517 197.904 28.826C199.666 26.9506 202.719 26.0523 202.713 27.4114C202.711 27.7412 202 29.1754 201.132 30.5986L199.554 33.1862L202.134 34.5323L204.715 35.8783L200.478 37.812C196.655 39.5568 195.871 39.6567 192.444 38.8346C189.122 38.0376 188.169 38.1287 184.821 39.5637C181.04 41.1845 180.242 41.2884 176.33 40.6701C175.231 40.4963 172.553 39.5559 170.379 38.5802ZM209.84 38.0353C211.139 37.4972 213.002 37.3179 214.001 37.6348C215.733 38.1844 215.693 38.2708 213.06 39.6728C209.702 41.4614 209.535 41.4769 208.398 40.1068C207.675 39.2366 207.974 38.8084 209.84 38.0353ZM428.991 36.4064C430.542 35.4046 431.39 35.4046 431.39 36.4064C431.39 36.8462 430.581 37.2005 429.591 37.1937C428.136 37.1839 428.022 37.0332 428.991 36.4064ZM572.896 31.2286C573.453 30.5583 573.594 29.9985 573.21 29.9845C572.826 29.9705 573.232 29.4153 574.112 28.7508C574.991 28.0862 575.717 27.2881 575.724 26.9772C575.752 25.7946 579.007 22.6758 581.308 21.6278C582.627 21.0267 586.045 20.3493 588.904 20.1224C591.762 19.8954 595.591 19.4797 597.412 19.1984C599.35 18.8991 600.93 19.0215 601.221 19.4936C601.788 20.4109 600.706 20.8007 594.5 21.9157C588.342 23.022 584.641 24.746 582.203 27.6434C579.635 30.6956 579.549 32.6227 581.907 34.2681L583.706 35.523L581.308 35.4872C579.988 35.4676 577.47 34.883 575.711 34.1882C571.623 32.5735 571.707 32.6618 572.896 31.2286ZM156.945 31.8699C155.655 30.5804 155.949 30.2997 162.136 26.9129C169.384 22.9448 173.027 22.418 179.528 24.3975L183.126 25.493L178.329 26.4442C174.406 27.2222 166.091 30.0026 159.525 32.7323C158.855 33.0107 157.699 32.6243 156.945 31.8699ZM212.51 28.799L210.311 27.5369L213.256 27.9999C215.347 28.3289 216.389 28.1329 216.854 27.3229C217.406 26.3596 222.495 24.4321 224.524 24.4175C224.865 24.4148 224.587 25.4912 223.905 26.809C222.3 29.9127 214.709 33.2361 214.709 30.835C214.709 30.4093 213.72 29.4931 212.51 28.799ZM227.158 28.5005C226.012 26.647 233.836 23.7778 237.159 24.8326C239.581 25.6014 237.963 26.9224 233.738 27.6247C231.847 27.939 229.707 28.4488 228.982 28.7577C228.257 29.0667 227.436 28.9509 227.158 28.5005ZM252.688 22.6127C247.411 22.193 242.995 21.7582 242.875 21.6466C242.16 20.9832 243.943 18.8238 245.862 18.0289C247.749 17.2474 248.618 17.3511 251.202 18.6658C253.719 19.9472 255.342 20.1602 260.02 19.8231C263.173 19.5959 266.771 19.6678 268.015 19.9828L270.279 20.5557L267.48 22.051C265.941 22.8735 264.142 23.5081 263.482 23.4612C262.823 23.4143 257.965 23.0325 252.688 22.6127ZM481.563 16.4052C482.772 16.3984 484.301 16.0047 484.961 15.5302C485.997 14.7843 485.984 14.7234 484.858 15.0802C484.142 15.3072 483.138 15.0741 482.626 14.5626C481.919 13.8553 481.55 13.8678 481.089 14.6149C480.661 15.3065 479.783 15.3884 478.124 14.8913C473.907 13.6287 472.967 13.0681 472.967 11.8162C472.967 10.7558 474.024 10.6587 480.563 11.1184C485.543 11.4684 488.159 11.3714 488.159 10.8366C488.159 9.26265 490.377 10.0399 490.966 11.8199L491.56 13.6189L491.914 11.8199C492.109 10.8305 492.783 10.0209 493.412 10.0209C494.041 10.0209 494.555 9.58914 494.555 9.06143C494.555 8.31517 494.769 8.31517 495.515 9.06143C496.073 9.61955 498.749 10.0209 501.911 10.0209C507.628 10.0209 508.97 11.0429 505.158 12.4924C503.177 13.2457 499.731 13.0326 495.955 11.9233C495.185 11.6972 494.558 11.8064 494.56 12.1658C494.566 12.9037 499.059 15.6178 500.274 15.6178C500.71 15.6178 501.571 16.1226 502.188 16.7395C503.15 17.702 503.142 17.9254 502.131 18.3135C501.482 18.5623 500.952 18.3773 500.952 17.9024C500.952 17.3442 499.935 17.2298 498.075 17.5787C496.06 17.9567 495.362 17.853 495.745 17.2329C496.046 16.7459 495.857 15.8234 495.326 15.183C494.301 13.9476 491.357 13.5694 491.357 14.673C491.357 15.0329 490.188 16.6202 488.759 18.2003L486.16 21.0732L482.784 19.345C478.856 17.3342 478.477 16.4223 481.563 16.4052ZM264.282 16.8172C261.432 17.0794 259.24 16.8533 258.053 16.1747C256.417 15.239 256.817 15.1324 261.811 15.1728C268.055 15.2234 270.797 13.8867 267.416 12.4408C265.809 11.7539 266.043 11.6916 268.797 12.073C272.392 12.5711 273.79 11.6079 271.831 9.9822C269.742 8.24876 272.039 7.71063 279.471 8.19211C284.07 8.49005 286.959 8.32293 288.141 7.69072C290.404 6.47959 289.516 4.93787 286.929 5.58708C285.141 6.03577 272.735 5.2995 273.258 4.7758C273.633 4.40154 291.21 2.77362 302.751 2.0443C308.738 1.666 315.394 1.13829 317.543 0.871605L321.45 0.386719L315.001 3.48486C308.953 6.38957 299.119 9.22135 295.079 9.22135C294.096 9.22135 291.268 10.3008 288.796 11.62C286.324 12.9393 283.805 14.0187 283.199 14.0187C282.593 14.0187 279.978 15.0936 277.387 16.4073C274.797 17.721 272.677 18.7876 272.677 18.7778C272.677 18.7676 271.778 18.2314 270.678 17.586C269.292 16.7723 267.331 16.5366 264.282 16.8172ZM253.917 7.62525C258.068 5.47396 261.996 4.92258 263.782 6.24052C265.196 7.28395 265.114 7.44524 262.337 9.08359C259.443 10.7911 258.268 10.9851 255.087 10.2811C251.212 9.42368 251.07 9.10113 253.917 7.62525Z" fill="url(#paint0_linear_312_863)"/>
</g>
</g>
<path d="M601 131V145L591 138.467L601 131Z" fill="#575784"/>
<path fill-rule="evenodd" clip-rule="evenodd" d="M526 112C526 104.26 532.26 98 540 98C547.74 98 554 104.26 554 112C554 122.5 540 138 540 138C540 138 526 122.5 526 112ZM535 112C535 114.76 537.24 117 540 117C542.76 117 545 114.76 545 112C545 109.24 542.76 107 540 107C537.24 107 535 109.24 535 112Z" fill="url(#paint1_linear_312_863)"/>
<path fill-rule="evenodd" clip-rule="evenodd" d="M100 136C100 128.26 106.26 122 114 122C121.74 122 128 128.26 128 136C128 146.5 114 162 114 162C114 162 100 146.5 100 136ZM109 136C109 138.76 111.24 141 114 141C116.76 141 119 138.76 119 136C119 133.24 116.76 131 114 131C111.24 131 109 133.24 109 136Z" fill="url(#paint2_linear_312_863)"/>
<path fill-rule="evenodd" clip-rule="evenodd" d="M156 68C156 60.26 162.26 54 170 54C177.74 54 184 60.26 184 68C184 78.5 170 94 170 94C170 94 156 78.5 156 68ZM165 68C165 70.76 167.24 73 170 73C172.76 73 175 70.76 175 68C175 65.24 172.76 63 170 63C167.24 63 165 65.24 165 68Z" fill="url(#paint3_linear_312_863)"/>
<path fill-rule="evenodd" clip-rule="evenodd" d="M498 327C498 319.26 504.26 313 512 313C519.74 313 526 319.26 526 327C526 337.5 512 353 512 353C512 353 498 337.5 498 327ZM507 327C507 329.76 509.24 332 512 332C514.76 332 517 329.76 517 327C517 324.24 514.76 322 512 322C509.24 322 507 324.24 507 327Z" fill="url(#paint4_linear_312_863)"/>
<path fill-rule="evenodd" clip-rule="evenodd" d="M792 53C792 45.26 798.26 39 806 39C813.74 39 820 45.26 820 53C820 63.5 806 79 806 79C806 79 792 63.5 792 53ZM801 53C801 55.76 803.24 58 806 58C808.76 58 811 55.76 811 53C811 50.24 808.76 48 806 48C803.24 48 801 50.24 801 53Z" fill="url(#paint5_linear_312_863)"/>
<path fill-rule="evenodd" clip-rule="evenodd" d="M250 327C250 319.26 256.26 313 264 313C271.74 313 278 319.26 278 327C278 337.5 264 353 264 353C264 353 250 337.5 250 327ZM259 327C259 329.76 261.24 332 264 332C266.76 332 269 329.76 269 327C269 324.24 266.76 322 264 322C261.24 322 259 324.24 259 327Z" fill="url(#paint6_linear_312_863)"/>
<defs>
<filter id="filter0_d_312_863" x="0.673828" y="0.386719" width="959.415" height="487.164" filterUnits="userSpaceOnUse" color-interpolation-filters="sRGB">
<feFlood flood-opacity="0" result="BackgroundImageFix"/>
<feColorMatrix in="SourceAlpha" type="matrix" values="0 0 0 0 0 0 0 0 0 0 0 0 0 0 0 0 0 0 127 0" result="hardAlpha"/>
<feOffset dx="18" dy="4"/>
<feGaussianBlur stdDeviation="1.5"/>
<feComposite in2="hardAlpha" operator="out"/>
<feColorMatrix type="matrix" values="0 0 0 0 0.471042 0 0 0 0 0.57715 0 0 0 0 0.85 0 0 0 0.25 0"/>
<feBlend mode="normal" in2="BackgroundImageFix" result="effect1_dropShadow_312_863"/>
<feBlend mode="normal" in="SourceGraphic" in2="effect1_dropShadow_312_863" result="shape"/>
</filter>
<linearGradient id="paint0_linear_312_863" x1="0.673813" y1="1944.03" x2="-111.263" y2="37.608" gradientUnits="userSpaceOnUse">
<stop stop-color="#201790"/>
<stop offset="1" stop-color="#6FB5F6"/>
</linearGradient>
<linearGradient id="paint1_linear_312_863" x1="526.288" y1="98" x2="551.235" y2="103.94" gradientUnits="userSpaceOnUse">
<stop offset="0.133071" stop-color="#201795"/>
<stop offset="1" stop-color="#3386A0"/>
</linearGradient>
<linearGradient id="paint2_linear_312_863" x1="100.288" y1="122" x2="125.235" y2="127.94" gradientUnits="userSpaceOnUse">
<stop offset="0.133071" stop-color="#201795"/>
<stop offset="1" stop-color="#3386A0"/>
</linearGradient>
<linearGradient id="paint3_linear_312_863" x1="156.288" y1="54" x2="181.235" y2="59.94" gradientUnits="userSpaceOnUse">
<stop offset="0.133071" stop-color="#201795"/>
<stop offset="1" stop-color="#3386A0"/>
</linearGradient>
<linearGradient id="paint4_linear_312_863" x1="498.288" y1="313" x2="523.235" y2="318.94" gradientUnits="userSpaceOnUse">
<stop offset="0.133071" stop-color="#201795"/>
<stop offset="1" stop-color="#3386A0"/>
</linearGradient>
<linearGradient id="paint5_linear_312_863" x1="792.288" y1="39" x2="817.235" y2="44.94" gradientUnits="userSpaceOnUse">
<stop offset="0.133071" stop-color="#201795"/>
<stop offset="1" stop-color="#3386A0"/>
</linearGradient>
<linearGradient id="paint6_linear_312_863" x1="250.288" y1="313" x2="275.235" y2="318.94" gradientUnits="userSpaceOnUse">
<stop offset="0.133071" stop-color="#201795"/>
<stop offset="1" stop-color="#3386A0"/>
</linearGradient>
<clipPath id="clip0_312_863">
<rect width="940" height="481" fill="white"/>
</clipPath>
</defs>
</svg>
