<svg width="12" height="20" viewBox="0 0 12 20" fill="none" xmlns="http://www.w3.org/2000/svg">
<path d="M5.79067 0C5.804 0.133333 5.81067 0.266667 5.81067 0.4C5.81133 4.11867 0 6.61333 0 11.2367C0 13.244 1.65733 14.5873 3.00933 15.7653C5.584 17.6467 6.09533 18.4893 6.09533 19.104C6.09533 19.5113 6 19.7853 6 20C6.512 19.326 6.57133 18.716 6.578 18.1313C6.578 16.9387 5.73933 15.8587 4.85 14.6367C4.21733 13.74 3.18 12.9187 3.18 11.8367C3.18 8.85933 7.33333 6.89667 7.33333 3.64467C7.33333 1.748 5.98933 0.096 5.79067 0ZM8.25 5.33333L8.41 5.62267C8.504 5.82933 8.54667 6.05867 8.54667 6.30933C8.54667 8.10533 6.22533 10.78 6.124 11.0013C6.03667 11.208 6 11.43 6 11.6367C6 12.45 6.60733 13.336 6.716 13.336C6.81067 13.336 8.98933 11.104 9.05467 9.80333C9.308 10.2767 9.41667 10.7127 9.41667 11.1487C9.41667 12.804 7.73667 15.0493 7.73667 15.0493C7.73667 15.5147 9.018 17.1847 9.16333 17.1847C9.206 17.1847 9.25667 17.134 9.29267 17.09C10.82 15.5087 12 13.6687 12 11.5847C11.999 11.2526 11.97 10.9212 11.9133 10.594C11.4267 7.912 8.91533 5.592 8.24933 5.33333H8.25Z" fill="#1FAA63"/>
</svg>
