<svg width="13" height="16" viewBox="0 0 13 16" fill="none" xmlns="http://www.w3.org/2000/svg">
<path d="M5.34423 11.5972C5.34805 11.5133 5.48695 11.4797 5.52739 11.553C5.72124 11.8964 6.05093 12.4009 6.42565 12.6306C6.7996 12.8595 7.39869 12.9252 7.79249 12.942C7.87643 12.9458 7.91001 13.0839 7.83675 13.1251C7.49332 13.319 6.98887 13.6486 6.75915 14.0226C6.5302 14.3966 6.46457 14.9964 6.44778 15.3902C6.44396 15.4742 6.30506 15.507 6.26462 15.4337C6.07077 15.0903 5.74108 14.5866 5.36713 14.3569C4.99317 14.1272 4.39332 14.0623 3.99953 14.0455C3.91558 14.0417 3.88276 13.9028 3.95603 13.8623C4.29945 13.6685 4.80314 13.3388 5.03286 12.9641C5.26257 12.5901 5.32744 11.9903 5.34423 11.5972ZM11.6137 10.8341C11.6076 10.7501 11.461 10.715 11.4175 10.7868C11.2863 11.0027 11.0963 11.2622 10.8856 11.392C10.675 11.5217 10.3567 11.5721 10.1049 11.5919C10.0209 11.598 9.9866 11.7445 10.0576 11.788C10.2736 11.9193 10.5338 12.1086 10.6628 12.32C10.7925 12.5306 10.8436 12.8488 10.8627 13.1007C10.8696 13.1846 11.0154 13.219 11.0596 13.1472C11.1909 12.932 11.3802 12.6718 11.5915 12.5428C11.8022 12.4131 12.1197 12.3619 12.3715 12.3429C12.4555 12.336 12.4906 12.1902 12.4188 12.146C12.2029 12.0147 11.9426 11.8254 11.8136 11.614C11.6839 11.4034 11.6335 11.0859 11.6137 10.8341ZM8.72279 2.04769L8.5381 1.81416C7.82301 0.911331 7.46585 0.459534 7.04992 0.525929C6.63399 0.593088 6.4348 1.13341 6.03719 2.21483L5.93493 2.49415C5.82121 2.8017 5.76474 2.9551 5.65713 3.06805C5.548 3.181 5.40071 3.23976 5.1046 3.35806L4.8352 3.46566L4.64593 3.54198C3.73013 3.9083 3.26917 4.11665 3.21041 4.52113C3.14783 4.95232 3.58436 5.32169 4.45743 6.05968L4.68333 6.25047C4.93136 6.46034 5.05575 6.56566 5.12597 6.70837C5.1977 6.85109 5.20763 7.01593 5.22823 7.34562L5.24655 7.64555C5.31752 8.80557 5.35339 9.38558 5.7304 9.58553C6.1074 9.78548 6.57599 9.47334 7.51316 8.84831L7.75585 8.68651C8.02296 8.50869 8.15575 8.4194 8.30763 8.39574C8.46026 8.37132 8.61442 8.41406 8.92274 8.49954L9.20359 8.57738C10.2888 8.87807 10.8314 9.02841 11.1268 8.72086C11.4229 8.4133 11.2764 7.85084 10.9818 6.72669L10.9062 6.43592C10.8223 6.11615 10.7811 5.95665 10.804 5.79868C10.8269 5.6407 10.9123 5.5018 11.0825 5.22477L11.2374 4.97293C11.8373 3.99912 12.1372 3.51222 11.9426 3.12147C11.7488 2.73226 11.1894 2.69639 10.0698 2.62694L9.78055 2.60862C9.4623 2.58878 9.30356 2.57886 9.16543 2.50559C9.02806 2.43233 8.92579 2.30412 8.72279 2.04769ZM4.24374 9.1635C2.61284 9.96025 1.25516 11.2225 0.743076 12.7306C0.169172 9.13831 0.965922 6.81827 2.24271 5.37588C2.3526 5.60101 2.49608 5.78723 2.62429 5.93299C2.8914 6.23521 3.27451 6.55879 3.66373 6.88772L3.94381 7.1243L4.07355 7.23496C4.07737 7.28381 4.08119 7.34181 4.085 7.41583L4.1079 7.78597C4.13842 8.28585 4.16895 8.77351 4.24374 9.1635Z" fill="#11CF79"/>
</svg>
