<svg width="121" height="28" viewBox="0 0 121 28" fill="none" xmlns="http://www.w3.org/2000/svg">
<path d="M1 13.2258L2.35227 10.129L5.05682 8.96774L7.76136 8.19355L10.4659 2L12.4943 2.77419L15.1989 5.48387L17.9034 9.35484L21.2841 10.129L23.9886 13.6129L25.3409 16.7097L29.3977 17.871L32.1023 24.0645L35.483 25.2258L39.5398 21.7419L42.2443 20.5806L44.9489 17.871L46.9773 11.6774L49.0057 6.25806L51.0341 6.64516L55.0909 15.1613L59.1477 17.0968L63.2045 20.1935L65.9091 19.4194L69.2898 23.2903L71.9943 26L75.375 23.2903L79.4318 20.5806L81.4602 17.0968L84.1648 17.871H86.1932L88.2216 15.1613L90.9261 14.3871L94.3068 13.6129H98.3636L100.392 11.2903L102.42 5.48387L105.125 2L107.153 4.32258L109.858 2L111.886 5.09677L115.943 7.03226L120 6.64516" stroke="#10CF78" stroke-width="2" stroke-miterlimit="16"/>
</svg>
