<svg width="100" height="58" viewBox="0 0 100 58" fill="none" xmlns="http://www.w3.org/2000/svg">
<mask id="mask0_2_5268" style="mask-type:alpha" maskUnits="userSpaceOnUse" x="0" y="48" width="5" height="10">
<rect x="0.0744629" y="48.2836" width="4.65672" height="9.31344" rx="2.32836" fill="#304CFD"/>
</mask>
<g mask="url(#mask0_2_5268)">
<rect x="0.0744629" y="48.2836" width="4.65672" height="9.31344" fill="#FF955C"/>
</g>
<mask id="mask1_2_5268" style="mask-type:alpha" maskUnits="userSpaceOnUse" x="9" y="42" width="6" height="16">
<rect x="9.38794" y="42.4628" width="4.65672" height="15.1343" rx="2.32836" fill="#304CFD"/>
</mask>
<g mask="url(#mask1_2_5268)">
<rect x="9.38794" y="42.4628" width="4.65672" height="15.1343" fill="#FF955C"/>
</g>
<mask id="mask2_2_5268" style="mask-type:alpha" maskUnits="userSpaceOnUse" x="18" y="34" width="6" height="24">
<rect x="18.7013" y="34.3135" width="4.65672" height="23.2836" rx="2.32836" fill="#304CFD"/>
</mask>
<g mask="url(#mask2_2_5268)">
<rect x="18.7013" y="34.3135" width="4.65672" height="23.2836" fill="#FF955C"/>
</g>
<mask id="mask3_2_5268" style="mask-type:alpha" maskUnits="userSpaceOnUse" x="28" y="29" width="5" height="29">
<rect x="28.0149" y="29.6567" width="4.65672" height="27.9403" rx="2.32836" fill="#304CFD"/>
</mask>
<g mask="url(#mask3_2_5268)">
<rect x="28.0149" y="29.6567" width="4.65672" height="27.9403" fill="#FF955C"/>
</g>
<mask id="mask4_2_5268" style="mask-type:alpha" maskUnits="userSpaceOnUse" x="38" y="34" width="6" height="24">
<rect x="38.4924" y="34.3135" width="4.65672" height="23.2836" rx="2.32836" fill="#304CFD"/>
</mask>
<g mask="url(#mask4_2_5268)">
<rect x="38.4924" y="34.3135" width="4.65672" height="23.2836" fill="#FF955C"/>
</g>
<mask id="mask5_2_5268" style="mask-type:alpha" maskUnits="userSpaceOnUse" x="47" y="0" width="6" height="58">
<rect x="47.8059" y="0.552246" width="4.65672" height="57.0448" rx="2.32836" fill="#304CFD"/>
</mask>
<g mask="url(#mask5_2_5268)">
<rect x="47.8059" y="0.552246" width="4.65672" height="57.0448" fill="#FF955C"/>
</g>
<mask id="mask6_2_5268" style="mask-type:alpha" maskUnits="userSpaceOnUse" x="57" y="6" width="5" height="52">
<rect x="57.1195" y="6.3732" width="4.65672" height="51.2239" rx="2.32836" fill="#304CFD"/>
</mask>
<g mask="url(#mask6_2_5268)">
<rect x="57.1195" y="6.3732" width="4.65672" height="51.2239" fill="#FF955C"/>
</g>
<mask id="mask7_2_5268" style="mask-type:alpha" maskUnits="userSpaceOnUse" x="66" y="27" width="6" height="31">
<rect x="66.4327" y="27.3284" width="4.65672" height="30.2687" rx="2.32836" fill="#304CFD"/>
</mask>
<g mask="url(#mask7_2_5268)">
<rect x="66.4327" y="27.3284" width="4.65672" height="30.2687" fill="#FF955C"/>
</g>
<mask id="mask8_2_5268" style="mask-type:alpha" maskUnits="userSpaceOnUse" x="75" y="36" width="6" height="22">
<rect x="75.7463" y="36.6418" width="4.65672" height="20.9552" rx="2.32836" fill="#304CFD"/>
</mask>
<g mask="url(#mask8_2_5268)">
<rect x="75.7463" y="36.6418" width="4.65672" height="20.9552" fill="#FF955C"/>
</g>
<mask id="mask9_2_5268" style="mask-type:alpha" maskUnits="userSpaceOnUse" x="85" y="40" width="5" height="18">
<rect x="85.0596" y="40.1343" width="4.65672" height="17.4627" rx="2.32836" fill="#304CFD"/>
</mask>
<g mask="url(#mask9_2_5268)">
<rect x="85.0596" y="40.1343" width="4.65672" height="17.4627" fill="#FF955C"/>
</g>
<mask id="mask10_2_5268" style="mask-type:alpha" maskUnits="userSpaceOnUse" x="94" y="40" width="6" height="18">
<rect x="94.3728" y="40.1343" width="4.65672" height="17.4627" rx="2.32836" fill="#304CFD"/>
</mask>
<g mask="url(#mask10_2_5268)">
<rect x="94.3728" y="40.1343" width="4.65672" height="17.4627" fill="#FF955C"/>
</g>
</svg>
