<svg width="50" height="50" viewBox="0 0 50 50" fill="none" xmlns="http://www.w3.org/2000/svg">
<path fill-rule="evenodd" clip-rule="evenodd" d="M25 22.5C22.25 22.5 20 24.75 20 27.5C20 30.25 22.25 32.5 25 32.5C27.75 32.5 30 30.25 30 27.5C30 24.75 27.75 22.5 25 22.5Z" fill="url(#paint0_linear_338_861)"/>
<path fill-rule="evenodd" clip-rule="evenodd" d="M40 27.5C40 19.225 33.275 12.5 25 12.5C16.725 12.5 10 19.225 10 27.5C10 33.05 13.025 37.875 17.5 40.475L20 36.125C17.025 34.375 15 31.2 15 27.5C15 21.975 19.475 17.5 25 17.5C30.525 17.5 35 21.975 35 27.5C35 31.2 32.975 34.375 30 36.125L32.5 40.475C36.975 37.875 40 33.05 40 27.5ZM25 2.5C11.2 2.5 0 13.7 0 27.5C0 36.75 5.025 44.8 12.475 49.125L14.975 44.8C9.025 41.325 5 34.9 5 27.5C5 16.45 13.95 7.5 25 7.5C36.05 7.5 45 16.45 45 27.5C45 34.9 40.975 41.325 35 44.8L37.5 49.125C44.975 44.8 50 36.75 50 27.5C50 13.7 38.8 2.5 25 2.5Z" fill="url(#paint1_linear_338_861)"/>
<defs>
<linearGradient id="paint0_linear_338_861" x1="20.1028" y1="22.5" x2="28.5414" y2="25.3703" gradientUnits="userSpaceOnUse">
<stop offset="0.133071" stop-color="#201795"/>
<stop offset="1" stop-color="#3386A0"/>
<stop offset="1" stop-color="#3386A0"/>
</linearGradient>
<linearGradient id="paint1_linear_338_861" x1="0.514051" y1="2.5" x2="42.0608" y2="17.6548" gradientUnits="userSpaceOnUse">
<stop offset="0.133071" stop-color="#201795"/>
<stop offset="1" stop-color="#3386A0"/>
<stop offset="1" stop-color="#3386A0"/>
</linearGradient>
</defs>
</svg>
