<svg width="396" height="406" viewBox="0 0 396 406" fill="none" xmlns="http://www.w3.org/2000/svg">
<g clip-path="url(#clip0_146_360)">
<path d="M225.61 178.682C225.672 179.112 225.672 179.48 225.733 179.91C225.733 180.156 225.733 180.463 225.794 180.709C225.794 181.139 225.856 181.507 225.856 181.937C225.856 182.244 225.856 182.49 225.856 182.797C225.856 183.166 225.856 183.534 225.917 183.964C225.917 184.271 225.917 184.578 225.917 184.885C225.917 185.254 225.917 185.623 225.917 185.991C225.917 186.298 225.917 186.605 225.917 186.912C225.917 187.281 225.917 187.65 225.917 188.018C225.917 188.325 225.917 188.632 225.856 188.939C225.856 189.308 225.856 189.677 225.794 189.984C225.794 190.291 225.733 190.598 225.733 190.905C225.733 191.274 225.672 191.642 225.672 191.949C225.672 192.256 225.61 192.563 225.61 192.871C225.61 193.239 225.549 193.546 225.549 193.915C225.549 194.222 225.487 194.529 225.426 194.836C225.364 195.205 225.364 195.512 225.303 195.88C225.242 196.187 225.242 196.495 225.18 196.802C225.119 197.17 225.119 197.477 225.057 197.846C224.996 198.153 224.996 198.46 224.935 198.767C224.873 199.136 224.812 199.443 224.812 199.811C224.75 200.119 224.689 200.426 224.627 200.733C224.566 201.101 224.505 201.408 224.443 201.777C224.382 202.084 224.32 202.391 224.259 202.698C224.197 203.006 224.136 203.374 224.075 203.681C224.013 203.988 223.952 204.295 223.89 204.603C223.829 204.91 223.767 205.278 223.706 205.585C223.645 205.892 223.583 206.2 223.46 206.507C223.399 206.814 223.337 207.121 223.215 207.428C222.969 208.411 222.723 209.332 222.478 210.254C222.416 210.438 222.355 210.622 222.293 210.806C222.048 211.789 221.74 212.71 221.433 213.632C221.372 213.755 221.372 213.878 221.31 214C221.003 214.922 220.696 215.843 220.389 216.703C220.328 216.826 220.328 216.949 220.266 217.01C219.959 217.932 219.591 218.853 219.222 219.774C219.161 219.959 219.099 220.143 218.976 220.327C218.669 221.126 218.362 221.863 217.994 222.6C217.994 222.6 217.994 222.6 217.994 222.661C217.686 223.46 217.318 224.197 216.949 224.995C216.827 225.18 216.765 225.425 216.642 225.61C216.335 226.285 216.028 226.899 215.721 227.514C215.66 227.637 215.598 227.759 215.537 227.882C215.168 228.619 214.8 229.356 214.37 230.093C214.247 230.278 214.185 230.462 214.062 230.646C213.755 231.199 213.448 231.69 213.203 232.243C213.08 232.428 212.957 232.673 212.834 232.858C212.404 233.533 212.035 234.209 211.606 234.885C211.606 234.885 211.606 234.946 211.544 234.946C211.114 235.622 210.746 236.236 210.316 236.912C210.193 237.096 210.07 237.28 209.947 237.464C209.64 237.956 209.271 238.447 208.964 238.939C208.841 239.123 208.719 239.307 208.596 239.491C208.166 240.167 207.674 240.781 207.183 241.395C207.122 241.518 207.06 241.58 206.937 241.703C206.507 242.255 206.139 242.808 205.709 243.3C205.586 243.484 205.402 243.668 205.279 243.852C204.91 244.344 204.48 244.835 204.112 245.327C203.989 245.449 203.866 245.634 203.743 245.757C203.252 246.371 202.699 246.985 202.208 247.538C202.085 247.661 201.962 247.784 201.901 247.906C201.409 248.459 200.979 248.951 200.488 249.442C200.365 249.626 200.181 249.749 200.058 249.933C199.505 250.548 198.891 251.162 198.338 251.715C198.277 251.776 198.154 251.899 198.092 251.96C197.601 252.452 197.048 253.005 196.495 253.496C196.311 253.619 196.188 253.803 196.004 253.926C195.39 254.479 194.775 255.032 194.161 255.584L194.1 255.646C193.301 256.321 192.503 256.997 191.704 257.673C191.643 257.734 191.52 257.796 191.458 257.919C190.66 258.533 189.861 259.147 189.063 259.761C188.94 259.884 188.817 259.945 188.633 260.068C187.834 260.683 187.036 261.235 186.237 261.788C186.115 261.911 185.93 261.972 185.807 262.095C184.948 262.648 184.149 263.201 183.289 263.754C183.166 263.815 182.982 263.938 182.859 263.999C182.245 264.368 181.692 264.737 181.078 265.044C180.894 265.167 180.709 265.228 180.586 265.351C179.849 265.781 179.174 266.149 178.437 266.518C178.314 266.579 178.191 266.641 178.068 266.702C177.454 267.009 176.84 267.316 176.164 267.623C175.98 267.685 175.795 267.808 175.611 267.869C174.874 268.238 174.137 268.545 173.338 268.913C173.216 268.975 173.154 268.975 173.031 269.036C172.356 269.343 171.68 269.589 171.004 269.896C170.82 269.958 170.636 270.08 170.39 270.142C169.592 270.449 168.854 270.756 168.056 271.002C167.995 271.002 167.933 271.063 167.872 271.063C167.135 271.309 166.398 271.555 165.66 271.8C165.476 271.862 165.23 271.923 165.046 271.985C164.248 272.23 163.449 272.476 162.651 272.66C161.668 272.906 160.685 273.152 159.641 273.336C159.334 273.397 159.027 273.459 158.72 273.52C158.044 273.643 157.368 273.766 156.631 273.889C156.263 273.95 155.955 274.012 155.587 274.073C154.911 274.196 154.236 274.257 153.56 274.319C153.253 274.38 152.884 274.38 152.577 274.442C151.717 274.503 150.919 274.626 150.12 274.687C149.997 274.687 149.813 274.687 149.69 274.749C148.707 274.81 147.786 274.872 146.803 274.872C146.496 274.872 146.25 274.872 145.943 274.872C145.268 274.872 144.592 274.872 143.916 274.872C143.609 274.872 143.241 274.871 142.934 274.81C142.319 274.81 141.644 274.749 141.029 274.687C140.722 274.687 140.354 274.626 140.047 274.626C139.31 274.564 138.572 274.503 137.897 274.38C137.713 274.38 137.467 274.319 137.283 274.319C136.361 274.196 135.44 274.012 134.518 273.889C134.273 273.827 134.027 273.766 133.781 273.766C133.106 273.643 132.43 273.459 131.693 273.336C131.386 273.274 131.079 273.213 130.772 273.09C130.157 272.906 129.482 272.783 128.867 272.599C128.56 272.537 128.315 272.415 128.008 272.353C127.209 272.107 126.411 271.862 125.673 271.555C125.551 271.493 125.489 271.493 125.366 271.432C124.568 271.186 123.831 270.879 123.032 270.572L206.507 304.171C207.244 304.478 208.043 304.785 208.841 305.031C208.841 305.031 208.841 305.031 208.903 305.031C208.964 305.031 209.087 305.092 209.149 305.092C209.947 305.338 210.746 305.645 211.483 305.891C211.79 305.952 212.035 306.075 212.343 306.136C212.957 306.321 213.571 306.505 214.247 306.628C214.554 306.689 214.861 306.812 215.168 306.873C215.844 307.058 216.519 307.18 217.257 307.303C217.502 307.365 217.748 307.426 217.994 307.426C218.915 307.61 219.836 307.733 220.758 307.856C220.819 307.856 220.819 307.856 220.881 307.856C221.065 307.856 221.249 307.918 221.433 307.918C222.17 308.04 222.846 308.102 223.583 308.163C223.89 308.163 224.197 308.225 224.566 308.225C225.18 308.286 225.856 308.286 226.47 308.348C226.777 308.348 227.146 308.348 227.453 308.409C228.129 308.409 228.804 308.409 229.48 308.409C229.787 308.409 230.033 308.409 230.34 308.409C231.323 308.409 232.244 308.348 233.227 308.286C233.35 308.286 233.534 308.286 233.657 308.225C234.455 308.163 235.315 308.102 236.175 307.979C236.482 307.918 236.851 307.918 237.158 307.856C237.834 307.795 238.509 307.672 239.185 307.61C239.553 307.549 239.861 307.488 240.229 307.426C240.905 307.303 241.58 307.18 242.317 307.058C242.625 306.996 242.932 306.935 243.239 306.873C244.222 306.689 245.204 306.443 246.249 306.198C247.047 306.013 247.846 305.768 248.644 305.522C248.828 305.461 249.074 305.399 249.258 305.338C249.995 305.092 250.733 304.846 251.47 304.601C251.531 304.601 251.592 304.539 251.654 304.539C252.452 304.294 253.189 303.986 253.988 303.679C254.172 303.618 254.357 303.495 254.602 303.434C255.278 303.188 255.954 302.881 256.629 302.574C256.752 302.512 256.814 302.512 256.936 302.451C257.673 302.144 258.411 301.775 259.209 301.407C259.393 301.345 259.578 301.222 259.762 301.161C260.376 300.854 261.052 300.547 261.666 300.24C261.789 300.178 261.912 300.117 262.035 300.055C262.772 299.687 263.509 299.257 264.184 298.888C264.369 298.765 264.553 298.704 264.676 298.581C265.29 298.213 265.843 297.905 266.457 297.537C266.58 297.476 266.641 297.414 266.764 297.353C266.826 297.353 266.826 297.291 266.887 297.291C267.747 296.738 268.607 296.186 269.405 295.633C269.528 295.51 269.713 295.449 269.835 295.326C270.634 294.773 271.432 294.22 272.231 293.606C272.354 293.483 272.477 293.422 272.661 293.299C273.459 292.684 274.258 292.07 275.056 291.456C275.118 291.395 275.241 291.333 275.302 291.21C276.101 290.535 276.899 289.859 277.698 289.183C277.698 289.183 277.759 289.183 277.759 289.122C278.373 288.569 278.988 288.016 279.602 287.463C279.786 287.341 279.909 287.156 280.093 287.033C280.646 286.542 281.137 286.051 281.69 285.498C281.752 285.436 281.874 285.314 281.936 285.252C282.55 284.638 283.103 284.085 283.656 283.471C283.779 283.287 283.963 283.164 284.086 282.979C284.577 282.488 285.007 281.935 285.498 281.444C285.56 281.382 285.683 281.26 285.744 281.198C285.806 281.137 285.806 281.137 285.867 281.075C286.358 280.461 286.911 279.908 287.403 279.294C287.525 279.171 287.648 278.987 287.771 278.864C288.14 278.373 288.57 277.881 288.938 277.39C289.061 277.206 289.245 277.021 289.368 276.837C289.798 276.284 290.167 275.793 290.597 275.24C290.658 275.117 290.72 275.056 290.842 274.933C291.334 274.319 291.764 273.643 292.255 273.029C292.317 272.967 292.317 272.906 292.378 272.845C292.439 272.722 292.562 272.599 292.624 272.476C292.992 271.985 293.299 271.493 293.606 271.002C293.729 270.818 293.852 270.633 293.975 270.449C294.405 269.773 294.835 269.159 295.203 268.483C295.203 268.483 295.203 268.422 295.265 268.422C295.695 267.746 296.063 267.071 296.493 266.395C296.616 266.211 296.739 266.026 296.862 265.781C297.169 265.228 297.476 264.737 297.722 264.184C297.783 264.061 297.845 263.938 297.906 263.815C297.968 263.754 297.968 263.692 298.029 263.631C298.398 262.894 298.827 262.157 299.196 261.42C299.257 261.297 299.319 261.174 299.38 261.051C299.687 260.437 299.995 259.761 300.302 259.147C300.424 258.963 300.486 258.717 300.609 258.533C300.977 257.796 301.284 256.997 301.653 256.199V256.137C301.96 255.4 302.267 254.602 302.574 253.865C302.636 253.742 302.636 253.68 302.697 253.557C302.759 253.435 302.759 253.373 302.82 253.25C303.189 252.329 303.557 251.408 303.864 250.486C303.926 250.363 303.926 250.241 303.987 250.179C304.294 249.258 304.601 248.398 304.908 247.476C304.97 247.354 304.97 247.231 305.031 247.108C305.338 246.187 305.584 245.204 305.891 244.282C305.953 244.098 306.014 243.914 306.076 243.73C306.321 242.808 306.567 241.825 306.813 240.904C306.813 240.843 306.813 240.781 306.874 240.72C306.935 240.474 306.997 240.228 307.058 239.983C307.12 239.676 307.181 239.368 307.304 239.061C307.365 238.754 307.427 238.386 307.488 238.079C307.55 237.771 307.611 237.464 307.673 237.157C307.734 236.85 307.795 236.482 307.857 236.174C307.918 235.867 307.98 235.56 308.041 235.253C308.102 234.885 308.164 234.577 308.225 234.209C308.287 233.902 308.348 233.595 308.41 233.288C308.471 232.919 308.532 232.612 308.532 232.243C308.594 231.936 308.655 231.629 308.655 231.322C308.717 230.953 308.717 230.646 308.778 230.278C308.84 229.971 308.84 229.663 308.901 229.356C308.962 228.988 308.962 228.681 309.024 228.312C309.085 228.005 309.085 227.698 309.147 227.391C309.208 227.022 309.208 226.715 309.208 226.347C309.208 226.039 309.27 225.732 309.27 225.425C309.27 225.057 309.331 224.688 309.331 224.381C309.331 224.074 309.392 223.767 309.392 223.46C309.392 223.091 309.392 222.723 309.454 222.415C309.454 222.108 309.454 221.801 309.515 221.494C309.515 221.126 309.515 220.757 309.515 220.388C309.515 220.081 309.515 219.774 309.515 219.467C309.515 219.099 309.515 218.73 309.515 218.361C309.515 218.054 309.515 217.747 309.515 217.44C309.515 217.072 309.515 216.703 309.454 216.273C309.454 215.966 309.454 215.72 309.454 215.413C309.454 214.983 309.392 214.615 309.392 214.185C309.392 213.939 309.392 213.632 309.331 213.386C309.331 212.956 309.27 212.465 309.208 212.035C309.208 211.789 309.147 211.605 309.147 211.359C309.085 210.684 309.024 210.008 308.962 209.332C308.901 208.718 308.778 208.104 308.717 207.489L225.61 178.682Z" fill="url(#paint0_linear_146_360)"/>
<path d="M308.594 207.613C308.655 208.227 308.778 208.841 308.839 209.455C313.753 252.821 285.744 296.309 246.248 306.628C209.701 316.149 176.164 293.975 167.38 256.322L82.4307 285.621C100.059 371.246 175.119 422.289 256.997 400.914C343.974 378.31 405.643 282.55 394.771 187.097C394.464 184.149 394.034 181.2 393.543 178.313L308.594 207.613Z" fill="url(#paint1_linear_146_360)"/>
<path d="M86.3006 362.586L169.776 396.184C126.533 378.801 93.3643 338.937 82.4309 285.683L0 256.875C11.9162 307.734 44.4095 345.694 86.3006 362.586Z" fill="url(#paint2_linear_146_360)"/>
<path d="M84.9493 227.575L0 256.874L82.4309 285.682L167.38 256.383L84.9493 227.575Z" fill="url(#paint3_linear_146_360)"/>
<path d="M310.559 149.321L225.61 178.682L308.594 207.613L393.543 178.313L310.559 149.321Z" fill="url(#paint4_linear_146_360)"/>
<path d="M190.905 242.809C257.938 242.809 312.279 188.468 312.279 121.435C312.279 54.4024 257.938 0.0615234 190.905 0.0615234C123.873 0.0615234 69.5317 54.4024 69.5317 121.435C69.5317 188.468 123.873 242.809 190.905 242.809Z" fill="url(#paint5_linear_146_360)"/>
<path d="M190.905 242.809C257.938 242.809 312.279 188.468 312.279 121.435C312.279 54.4024 257.938 0.0615234 190.905 0.0615234C123.873 0.0615234 69.5317 54.4024 69.5317 121.435C69.5317 188.468 123.873 242.809 190.905 242.809Z" fill="url(#paint6_linear_146_360)"/>
</g>
<defs>
<linearGradient id="paint0_linear_146_360" x1="303.996" y1="260.284" x2="110.449" y2="260.073" gradientUnits="userSpaceOnUse">
<stop stop-color="#201790"/>
<stop offset="1" stop-color="#6FB5F6"/>
</linearGradient>
<linearGradient id="paint1_linear_146_360" x1="386.733" y1="321.394" x2="61.271" y2="321.054" gradientUnits="userSpaceOnUse">
<stop stop-color="#201790"/>
<stop offset="1" stop-color="#6FB5F6"/>
</linearGradient>
<linearGradient id="paint2_linear_146_360" x1="164.751" y1="344.505" x2="-11.456" y2="344.342" gradientUnits="userSpaceOnUse">
<stop stop-color="#201790"/>
<stop offset="1" stop-color="#6FB5F6"/>
</linearGradient>
<linearGradient id="paint3_linear_146_360" x1="162.426" y1="264.126" x2="-11.2937" y2="263.747" gradientUnits="userSpaceOnUse">
<stop stop-color="#201790"/>
<stop offset="1" stop-color="#6FB5F6"/>
</linearGradient>
<linearGradient id="paint4_linear_146_360" x1="388.573" y1="185.988" x2="214.279" y2="185.608" gradientUnits="userSpaceOnUse">
<stop stop-color="#201790"/>
<stop offset="1" stop-color="#6FB5F6"/>
</linearGradient>
<linearGradient id="paint5_linear_146_360" x1="305.094" y1="152.757" x2="53.1517" y2="152.566" gradientUnits="userSpaceOnUse">
<stop stop-color="#201790"/>
<stop offset="1" stop-color="#6FB5F6"/>
</linearGradient>
<linearGradient id="paint6_linear_146_360" x1="305.094" y1="152.757" x2="53.1517" y2="152.566" gradientUnits="userSpaceOnUse">
<stop stop-color="#201790"/>
<stop offset="1" stop-color="#6FB5F6"/>
</linearGradient>
<clipPath id="clip0_146_360">
<rect width="396" height="405.828" fill="white"/>
</clipPath>
</defs>
</svg>
