<svg width="177" height="19" viewBox="0 0 177 19" fill="none" xmlns="http://www.w3.org/2000/svg">
<path opacity="0.12" d="M1 9.01613L2.98864 7.08064L6.96591 6.35484L10.9432 5.87097L14.9205 2L17.9034 2.48387L21.8807 4.17742L25.858 6.59677L30.8295 7.08064L34.8068 9.25806L36.7955 11.1935L42.7614 11.9194L46.7386 15.7903L51.7102 16.5161L57.6761 14.3387L61.6534 13.6129L65.6307 11.9194L68.6136 8.04839L71.5966 4.66129L74.5795 4.90323L80.5455 10.2258L86.5114 11.4355L92.4773 13.371L96.4545 12.8871L101.426 15.3065L105.403 17L110.375 15.3065L116.341 13.6129L119.324 11.4355L123.301 11.9194H126.284L129.267 10.2258L133.244 9.74194L138.216 9.25806H144.182L147.165 7.80645L150.148 4.17742L154.125 2L157.108 3.45161L161.085 2L164.068 3.93548L170.034 5.14516L176 4.90323" stroke="#10CF78" stroke-width="2" stroke-miterlimit="16"/>
</svg>
