<svg width="37" height="14" viewBox="0 0 37 14" fill="none" xmlns="http://www.w3.org/2000/svg">
<path d="M36 7.32258L35.6023 8.6129L34.8068 9.09677L34.0114 9.41936L33.2159 12L32.6193 11.6774L31.8239 10.5484L31.0284 8.93548L30.0341 8.6129L29.2386 7.16129L28.8409 5.87097L27.6477 5.3871L26.8523 2.80645L25.858 2.32258L24.6648 3.77419L23.8693 4.25807L23.0739 5.3871L22.4773 7.96774L21.8807 10.2258L21.2841 10.0645L20.0909 6.51613L18.8977 5.70968L17.7045 4.41936L16.9091 4.74194L15.9148 3.12903L15.1193 2L14.125 3.12903L12.9318 4.25807L12.3352 5.70968L11.5398 5.3871L10.9432 5.3871L10.3466 6.51613L9.55114 6.83871L8.55682 7.16129L7.36364 7.16129L6.76704 8.12903L6.17045 10.5484L5.375 12L4.77841 11.0323L3.98295 12L3.38636 10.7097L2.19318 9.90322L1 10.0645" stroke="#11CF79" stroke-width="2" stroke-miterlimit="16"/>
</svg>
