<svg width="309" height="317" viewBox="0 0 309 317" fill="none" xmlns="http://www.w3.org/2000/svg">
<g clip-path="url(#clip0_1_732)">
<path d="M176.044 139.426C176.092 139.762 176.092 140.049 176.14 140.385C176.14 140.577 176.14 140.816 176.188 141.008C176.188 141.343 176.236 141.631 176.236 141.967C176.236 142.206 176.236 142.398 176.236 142.638C176.236 142.925 176.236 143.213 176.284 143.548C176.284 143.788 176.284 144.027 176.284 144.267C176.284 144.555 176.284 144.842 176.284 145.13C176.284 145.369 176.284 145.609 176.284 145.849C176.284 146.136 176.284 146.424 176.284 146.712C176.284 146.951 176.284 147.191 176.236 147.43C176.236 147.718 176.236 148.006 176.188 148.245C176.188 148.485 176.14 148.725 176.14 148.964C176.14 149.252 176.092 149.539 176.092 149.779C176.092 150.019 176.044 150.258 176.044 150.498C176.044 150.786 175.996 151.025 175.996 151.313C175.996 151.552 175.948 151.792 175.901 152.032C175.853 152.319 175.853 152.559 175.805 152.846C175.757 153.086 175.757 153.326 175.709 153.565C175.661 153.853 175.661 154.093 175.613 154.38C175.565 154.62 175.565 154.859 175.517 155.099C175.469 155.387 175.421 155.626 175.421 155.914C175.373 156.154 175.325 156.393 175.277 156.633C175.23 156.92 175.182 157.16 175.134 157.448C175.086 157.687 175.038 157.927 174.99 158.167C174.942 158.406 174.894 158.694 174.846 158.933C174.798 159.173 174.75 159.413 174.702 159.652C174.654 159.892 174.606 160.18 174.559 160.419C174.511 160.659 174.463 160.899 174.367 161.138C174.319 161.378 174.271 161.618 174.175 161.857C173.983 162.624 173.792 163.343 173.6 164.062C173.552 164.206 173.504 164.349 173.456 164.493C173.264 165.26 173.025 165.979 172.785 166.698C172.737 166.794 172.737 166.89 172.689 166.986C172.45 167.705 172.21 168.423 171.97 169.094C171.922 169.19 171.922 169.286 171.874 169.334C171.635 170.053 171.347 170.772 171.06 171.491C171.012 171.635 170.964 171.779 170.868 171.922C170.628 172.545 170.389 173.121 170.101 173.696C170.101 173.696 170.101 173.696 170.101 173.744C169.861 174.367 169.574 174.942 169.286 175.565C169.19 175.709 169.143 175.9 169.047 176.044C168.807 176.571 168.567 177.051 168.328 177.53C168.28 177.626 168.232 177.722 168.184 177.818C167.896 178.393 167.609 178.968 167.273 179.543C167.177 179.687 167.129 179.831 167.034 179.974C166.794 180.406 166.554 180.789 166.363 181.221C166.267 181.364 166.171 181.556 166.075 181.7C165.74 182.227 165.452 182.754 165.116 183.282C165.116 183.282 165.116 183.329 165.069 183.329C164.733 183.857 164.445 184.336 164.11 184.863C164.014 185.007 163.918 185.151 163.822 185.295C163.583 185.678 163.295 186.061 163.055 186.445C162.96 186.589 162.864 186.732 162.768 186.876C162.432 187.403 162.049 187.883 161.666 188.362C161.618 188.458 161.57 188.506 161.474 188.602C161.138 189.033 160.851 189.464 160.515 189.848C160.419 189.992 160.276 190.135 160.18 190.279C159.892 190.663 159.557 191.046 159.269 191.43C159.173 191.525 159.077 191.669 158.982 191.765C158.598 192.244 158.167 192.724 157.783 193.155C157.687 193.251 157.592 193.347 157.544 193.443C157.16 193.874 156.825 194.257 156.441 194.641C156.345 194.785 156.202 194.88 156.106 195.024C155.674 195.504 155.195 195.983 154.764 196.414C154.716 196.462 154.62 196.558 154.572 196.606C154.189 196.989 153.757 197.421 153.326 197.804C153.182 197.9 153.086 198.044 152.942 198.14C152.463 198.571 151.984 199.002 151.505 199.434L151.457 199.482C150.834 200.009 150.21 200.536 149.587 201.063C149.539 201.111 149.444 201.159 149.396 201.255C148.773 201.734 148.149 202.214 147.526 202.693C147.431 202.789 147.335 202.837 147.191 202.933C146.568 203.412 145.945 203.843 145.322 204.275C145.226 204.37 145.082 204.418 144.986 204.514C144.315 204.946 143.692 205.377 143.021 205.808C142.925 205.856 142.781 205.952 142.686 206C142.206 206.288 141.775 206.575 141.296 206.815C141.152 206.911 141.008 206.959 140.912 207.054C140.337 207.39 139.81 207.678 139.235 207.965C139.139 208.013 139.043 208.061 138.947 208.109C138.468 208.349 137.988 208.588 137.461 208.828C137.317 208.876 137.174 208.972 137.03 209.02C136.455 209.307 135.88 209.547 135.257 209.834C135.161 209.882 135.113 209.882 135.017 209.93C134.49 210.17 133.962 210.362 133.435 210.601C133.291 210.649 133.148 210.745 132.956 210.793C132.333 211.033 131.758 211.272 131.135 211.464C131.087 211.464 131.039 211.512 130.991 211.512C130.416 211.704 129.841 211.895 129.265 212.087C129.122 212.135 128.93 212.183 128.786 212.231C128.163 212.423 127.54 212.614 126.917 212.758C126.15 212.95 125.383 213.141 124.568 213.285C124.329 213.333 124.089 213.381 123.849 213.429C123.322 213.525 122.795 213.621 122.22 213.717C121.932 213.765 121.693 213.813 121.405 213.86C120.878 213.956 120.351 214.004 119.823 214.052C119.584 214.1 119.296 214.1 119.056 214.148C118.385 214.196 117.762 214.292 117.139 214.34C117.043 214.34 116.9 214.34 116.804 214.388C116.037 214.436 115.318 214.484 114.551 214.484C114.311 214.484 114.12 214.484 113.88 214.484C113.353 214.484 112.826 214.484 112.298 214.484C112.059 214.484 111.771 214.484 111.532 214.436C111.052 214.436 110.525 214.388 110.046 214.34C109.806 214.34 109.518 214.292 109.279 214.292C108.704 214.244 108.129 214.196 107.601 214.1C107.458 214.1 107.266 214.052 107.122 214.052C106.403 213.956 105.684 213.812 104.965 213.717C104.773 213.669 104.582 213.621 104.39 213.621C103.863 213.525 103.336 213.381 102.76 213.285C102.521 213.237 102.281 213.189 102.042 213.094C101.562 212.95 101.035 212.854 100.556 212.71C100.316 212.662 100.124 212.566 99.8847 212.518C99.2616 212.327 98.6386 212.135 98.0634 211.895C97.9675 211.847 97.9196 211.847 97.8238 211.799C97.2007 211.608 96.6255 211.368 96.0024 211.128L161.138 237.346C161.713 237.585 162.337 237.825 162.96 238.017C162.96 238.017 162.96 238.017 163.008 238.017C163.055 238.017 163.151 238.065 163.199 238.065C163.822 238.256 164.445 238.496 165.021 238.688C165.26 238.736 165.452 238.832 165.692 238.88C166.171 239.023 166.65 239.167 167.177 239.263C167.417 239.311 167.657 239.407 167.896 239.455C168.424 239.598 168.951 239.694 169.526 239.79C169.718 239.838 169.909 239.886 170.101 239.886C170.82 240.03 171.539 240.126 172.258 240.222C172.306 240.222 172.306 240.222 172.354 240.222C172.498 240.222 172.641 240.269 172.785 240.269C173.36 240.365 173.887 240.413 174.463 240.461C174.702 240.461 174.942 240.509 175.23 240.509C175.709 240.557 176.236 240.557 176.715 240.605C176.955 240.605 177.243 240.605 177.482 240.653C178.009 240.653 178.537 240.653 179.064 240.653C179.304 240.653 179.495 240.653 179.735 240.653C180.502 240.653 181.221 240.605 181.988 240.557C182.083 240.557 182.227 240.557 182.323 240.509C182.946 240.461 183.617 240.413 184.288 240.317C184.528 240.269 184.815 240.269 185.055 240.222C185.582 240.174 186.109 240.078 186.637 240.03C186.924 239.982 187.164 239.934 187.451 239.886C187.979 239.79 188.506 239.694 189.081 239.598C189.321 239.551 189.56 239.503 189.8 239.455C190.567 239.311 191.334 239.119 192.149 238.927C192.772 238.784 193.395 238.592 194.018 238.4C194.162 238.352 194.353 238.304 194.497 238.256C195.072 238.065 195.647 237.873 196.223 237.681C196.27 237.681 196.318 237.633 196.366 237.633C196.989 237.442 197.565 237.202 198.188 236.962C198.331 236.914 198.475 236.819 198.667 236.771C199.194 236.579 199.721 236.339 200.249 236.1C200.344 236.052 200.392 236.052 200.488 236.004C201.063 235.764 201.639 235.477 202.262 235.189C202.405 235.141 202.549 235.045 202.693 234.997C203.172 234.758 203.7 234.518 204.179 234.278C204.275 234.23 204.371 234.182 204.466 234.135C205.042 233.847 205.617 233.511 206.144 233.224C206.288 233.128 206.431 233.08 206.527 232.984C207.007 232.697 207.438 232.457 207.917 232.169C208.013 232.121 208.061 232.074 208.157 232.026C208.205 232.026 208.205 231.978 208.253 231.978C208.924 231.546 209.595 231.115 210.218 230.684C210.314 230.588 210.458 230.54 210.553 230.444C211.176 230.013 211.8 229.581 212.423 229.102C212.518 229.006 212.614 228.958 212.758 228.862C213.381 228.383 214.004 227.904 214.627 227.424C214.675 227.376 214.771 227.329 214.819 227.233C215.442 226.705 216.065 226.178 216.688 225.651C216.688 225.651 216.736 225.651 216.736 225.603C217.216 225.172 217.695 224.74 218.174 224.309C218.318 224.213 218.414 224.069 218.558 223.973C218.989 223.59 219.372 223.207 219.804 222.775C219.852 222.727 219.948 222.631 219.995 222.584C220.475 222.104 220.906 221.673 221.337 221.194C221.433 221.05 221.577 220.954 221.673 220.81C222.056 220.427 222.392 219.995 222.775 219.612C222.823 219.564 222.919 219.468 222.967 219.42C223.015 219.372 223.015 219.372 223.063 219.324C223.446 218.845 223.878 218.414 224.261 217.934C224.357 217.839 224.453 217.695 224.549 217.599C224.836 217.215 225.172 216.832 225.459 216.449C225.555 216.305 225.699 216.161 225.795 216.017C226.13 215.586 226.418 215.202 226.753 214.771C226.801 214.675 226.849 214.627 226.945 214.531C227.329 214.052 227.664 213.525 228.048 213.046C228.096 212.998 228.096 212.95 228.143 212.902C228.191 212.806 228.287 212.71 228.335 212.614C228.623 212.231 228.862 211.847 229.102 211.464C229.198 211.32 229.294 211.176 229.39 211.033C229.725 210.505 230.061 210.026 230.348 209.499C230.348 209.499 230.348 209.451 230.396 209.451C230.732 208.924 231.019 208.396 231.355 207.869C231.451 207.725 231.546 207.582 231.642 207.39C231.882 206.959 232.122 206.575 232.313 206.144C232.361 206.048 232.409 205.952 232.457 205.856C232.505 205.808 232.505 205.76 232.553 205.712C232.841 205.137 233.176 204.562 233.464 203.987C233.512 203.891 233.559 203.795 233.607 203.699C233.847 203.22 234.087 202.693 234.326 202.214C234.422 202.07 234.47 201.878 234.566 201.734C234.854 201.159 235.093 200.536 235.381 199.913V199.865C235.62 199.29 235.86 198.667 236.1 198.092C236.148 197.996 236.148 197.948 236.196 197.852C236.243 197.756 236.243 197.708 236.291 197.612C236.579 196.893 236.867 196.175 237.106 195.456C237.154 195.36 237.154 195.264 237.202 195.216C237.442 194.497 237.681 193.826 237.921 193.107C237.969 193.011 237.969 192.915 238.017 192.819C238.257 192.101 238.448 191.334 238.688 190.615C238.736 190.471 238.784 190.327 238.832 190.183C239.023 189.464 239.215 188.698 239.407 187.979C239.407 187.931 239.407 187.883 239.455 187.835C239.503 187.643 239.551 187.451 239.599 187.26C239.646 187.02 239.694 186.78 239.79 186.541C239.838 186.301 239.886 186.014 239.934 185.774C239.982 185.534 240.03 185.295 240.078 185.055C240.126 184.815 240.174 184.528 240.222 184.288C240.27 184.048 240.317 183.809 240.365 183.569C240.413 183.282 240.461 183.042 240.509 182.754C240.557 182.515 240.605 182.275 240.653 182.035C240.701 181.748 240.749 181.508 240.749 181.221C240.797 180.981 240.845 180.741 240.845 180.502C240.893 180.214 240.893 179.974 240.941 179.687C240.988 179.447 240.988 179.208 241.036 178.968C241.084 178.68 241.084 178.441 241.132 178.153C241.18 177.913 241.18 177.674 241.228 177.434C241.276 177.147 241.276 176.907 241.276 176.619C241.276 176.38 241.324 176.14 241.324 175.9C241.324 175.613 241.372 175.325 241.372 175.086C241.372 174.846 241.42 174.606 241.42 174.367C241.42 174.079 241.42 173.792 241.468 173.552C241.468 173.312 241.468 173.073 241.516 172.833C241.516 172.545 241.516 172.258 241.516 171.97C241.516 171.731 241.516 171.491 241.516 171.251C241.516 170.964 241.516 170.676 241.516 170.389C241.516 170.149 241.516 169.909 241.516 169.67C241.516 169.382 241.516 169.094 241.468 168.759C241.468 168.519 241.468 168.328 241.468 168.088C241.468 167.752 241.42 167.465 241.42 167.129C241.42 166.938 241.42 166.698 241.372 166.506C241.372 166.171 241.324 165.787 241.276 165.452C241.276 165.26 241.228 165.116 241.228 164.925C241.18 164.397 241.132 163.87 241.084 163.343C241.036 162.864 240.941 162.384 240.893 161.905L176.044 139.426Z" fill="url(#paint0_linear_1_732)"/>
<path d="M240.797 162.001C240.845 162.48 240.941 162.96 240.989 163.439C244.823 197.277 222.967 231.211 192.149 239.263C163.631 246.692 137.461 229.389 130.607 200.009L64.3213 222.871C78.077 289.685 136.647 329.514 200.536 312.834C268.404 295.196 316.525 220.475 308.042 145.993C307.802 143.692 307.466 141.391 307.083 139.139L240.797 162.001Z" fill="url(#paint1_linear_1_732)"/>
<path d="M67.3406 282.927L132.476 309.144C98.7343 295.58 72.8525 264.474 64.3211 222.919L0 200.44C9.29828 240.126 34.6529 269.746 67.3406 282.927Z" fill="url(#paint2_linear_1_732)"/>
<path d="M66.2862 177.578L0 200.44L64.3211 222.919L130.607 200.057L66.2862 177.578Z" fill="url(#paint3_linear_1_732)"/>
<path d="M242.331 116.516L176.044 139.426L240.797 162.001L307.083 139.139L242.331 116.516Z" fill="url(#paint4_linear_1_732)"/>
<path d="M148.964 189.464C201.27 189.464 243.672 147.062 243.672 94.7562C243.672 42.4503 201.27 0.0479736 148.964 0.0479736C96.6582 0.0479736 54.2559 42.4503 54.2559 94.7562C54.2559 147.062 96.6582 189.464 148.964 189.464Z" fill="url(#paint5_linear_1_732)"/>
<path d="M148.964 189.464C201.27 189.464 243.672 147.062 243.672 94.7562C243.672 42.4503 201.27 0.0479736 148.964 0.0479736C96.6582 0.0479736 54.2559 42.4503 54.2559 94.7562C54.2559 147.062 96.6582 189.464 148.964 189.464Z" fill="url(#paint6_linear_1_732)"/>
</g>
<defs>
<linearGradient id="paint0_linear_1_732" x1="237.209" y1="203.101" x2="86.1837" y2="202.936" gradientUnits="userSpaceOnUse">
<stop stop-color="#7E8296"/>
<stop offset="1" stop-color="#1C1D22"/>
</linearGradient>
<linearGradient id="paint1_linear_1_732" x1="301.769" y1="250.785" x2="47.8103" y2="250.519" gradientUnits="userSpaceOnUse">
<stop stop-color="#7E8296"/>
<stop offset="1" stop-color="#1C1D22"/>
</linearGradient>
<linearGradient id="paint2_linear_1_732" x1="128.556" y1="268.818" x2="-8.93915" y2="268.691" gradientUnits="userSpaceOnUse">
<stop stop-color="#7E8296"/>
<stop offset="1" stop-color="#1C1D22"/>
</linearGradient>
<linearGradient id="paint3_linear_1_732" x1="126.742" y1="206.099" x2="-8.81249" y2="205.803" gradientUnits="userSpaceOnUse">
<stop stop-color="#7E8296"/>
<stop offset="1" stop-color="#1C1D22"/>
</linearGradient>
<linearGradient id="paint4_linear_1_732" x1="303.205" y1="145.128" x2="167.203" y2="144.83" gradientUnits="userSpaceOnUse">
<stop stop-color="#7E8296"/>
<stop offset="1" stop-color="#1C1D22"/>
</linearGradient>
<linearGradient id="paint5_linear_1_732" x1="238.066" y1="119.197" x2="41.4745" y2="119.048" gradientUnits="userSpaceOnUse">
<stop stop-color="#7E8296"/>
<stop offset="1" stop-color="#1C1D22"/>
</linearGradient>
<linearGradient id="paint6_linear_1_732" x1="238.066" y1="119.197" x2="41.4745" y2="119.048" gradientUnits="userSpaceOnUse">
<stop stop-color="#7E8296"/>
<stop offset="1" stop-color="#1C1D22"/>
</linearGradient>
<clipPath id="clip0_1_732">
<rect width="309" height="316.669" fill="white"/>
</clipPath>
</defs>
</svg>
