<svg width="150" height="150" viewBox="0 0 150 150" fill="none" xmlns="http://www.w3.org/2000/svg">
<path fill-rule="evenodd" clip-rule="evenodd" d="M0.910863 39.5521C1.92257 18.521 18.5211 1.92257 39.5521 0.910863C50.3229 0.392725 62.5825 0 75 0C87.4175 0 99.6771 0.392726 110.448 0.910864C131.479 1.92257 148.077 18.5211 149.089 39.5521C149.607 50.3229 150 62.5825 150 75C150 87.4175 149.607 99.6771 149.089 110.448C148.077 131.479 131.479 148.077 110.448 149.089C99.6771 149.607 87.4175 150 75 150C62.5825 150 50.3229 149.607 39.5521 149.089C18.521 148.077 1.92257 131.479 0.910863 110.448C0.392725 99.6771 0 87.4175 0 75C0 62.5825 0.392726 50.3229 0.910863 39.5521Z" fill="#A1F1AA"/>
<path d="M94.8772 28.8804L79.4175 112.805L90.4603 115.014C113.834 97.8976 123.864 28.8804 94.8772 28.8804Z" fill="#4E1E30"/>
<path d="M94.8778 28.88C91.0127 26.5333 70.6143 20.5735 55.124 28.88C36.0755 39.0946 19.4193 75.6276 46.29 112.805C46.3282 112.858 66.1669 110.597 66.1669 110.597L94.8778 28.88Z" fill="#4E1E30"/>
<path fill-rule="evenodd" clip-rule="evenodd" d="M94.8749 149.695C88.4385 149.884 81.7425 150 75 150C68.2561 150 61.5587 149.884 55.1211 149.695V116.354C59.5171 113.035 59.5383 107.548 59.5383 102.499V97.3457H90.4577V102.504H90.5778C90.5778 107.51 90.5913 112.949 94.8749 116.277V149.695Z" fill="#FFD7A3"/>
<path fill-rule="evenodd" clip-rule="evenodd" d="M92.6679 149.757C86.9142 149.909 80.9756 150 75.0005 150C70.5423 150 66.1044 149.949 61.7485 149.86V142.002C65.7694 143.095 70.2507 143.725 74.9998 143.725C81.5744 143.725 87.6577 142.544 92.6679 140.545V149.757Z" fill="#0090FF"/>
<path d="M92.6665 126.057C93.4723 126.277 94.198 126.394 94.8749 126.451V116.277C90.5916 112.949 90.5779 107.509 90.5779 102.504L90.5748 102.376V97.2172L66.164 97.3454L59.5383 99.5538C63.9555 104.523 77.483 121.916 92.6665 126.057Z" fill="#FDC88E"/>
<path d="M105.921 68.6335C105.921 86.3198 88.3317 108.387 75.0019 108.387C61.6721 108.387 44.0825 86.3198 44.0825 68.6335C44.0825 50.9471 57.9258 44.3392 75.0019 44.3392C92.078 44.3392 105.921 50.9471 105.921 68.6335Z" fill="#FFE1B2"/>
<path d="M79.4171 33.2975C78.1763 33.2975 74.1475 34.6917 70.8546 35.9134L70.5831 35.5059C70.5831 35.5059 70.1286 35.863 69.3419 36.4819C67.5104 37.1774 66.1662 37.7144 66.1662 37.7144L66.6828 38.5756C58.3001 45.1801 39.1747 60.2885 37.4549 62.0086C35.2465 64.2171 50.7062 120.564 50.7062 88.5113C50.7062 61.7327 65.5836 56.4294 79.4171 53.1745C85.6746 51.7021 87.5152 48.0212 88.2512 44.3404C88.9876 40.6595 81.6259 33.2975 79.4171 33.2975Z" fill="#4E1E30"/>
<path d="M86.0419 46.5486C90.0909 61.0881 98.1889 67.6678 105.781 69.6003C109.941 70.6593 108.128 57.5915 108.128 57.5915C108.128 57.5915 102.238 42.4996 101.502 42.1317C100.766 41.7635 94.8763 28.8804 94.8763 28.8804L81.625 39.9233L86.0419 46.5486Z" fill="#4E1E30"/>
<path fill-rule="evenodd" clip-rule="evenodd" d="M65.8738 149.933C56.6341 149.799 47.6703 149.48 39.5522 149.089C31.372 148.696 23.8623 145.944 17.6797 141.491C18.8079 129.121 29.2087 119.431 41.8724 119.431H42.6084C51.2629 119.431 55.48 117.069 57.5485 113.708L65.8738 149.933Z" fill="#FF955C"/>
<path fill-rule="evenodd" clip-rule="evenodd" d="M132.319 141.492C126.137 145.945 118.628 148.696 110.448 149.089C102.33 149.48 93.3655 149.799 84.1252 149.933L92.4505 113.708C94.519 117.069 98.7362 119.431 107.391 119.431H108.127C120.791 119.431 131.192 129.121 132.319 141.492Z" fill="#FF955C"/>
<path d="M102.628 68.8349C106.242 68.0066 108.61 69.7763 108.61 73.2521C108.61 77.8533 103.75 89.1261 98.6412 82.0862C93.5323 75.0464 102.628 68.8349 102.628 68.8349Z" fill="#FFE1B2"/>
</svg>
